<?xml version="1.0" encoding="UTF-8"?>
<svg xmlns="http://www.w3.org/2000/svg" xmlns:xlink="http://www.w3.org/1999/xlink" width="5000pt" height="5000pt" viewBox="0 0 5000 5000" version="1.1">
<g id="surface1">
<path style=" stroke:none;fill-rule:nonzero;fill:rgb(0.799561%,0.799561%,0.799561%);fill-opacity:1;" d="M 3750 5000 L 4583.328125 5000 L 4583.328125 4166.671875 L 3750 4166.671875 Z M 3750 3333.328125 L 4583.328125 3333.328125 L 4583.328125 2500 L 3750 2500 Z M 3750 833.328125 L 3750 1666.671875 L 4583.328125 1666.671875 L 4583.328125 833.328125 Z M 2916.671875 3333.328125 L 2916.671875 4166.671875 L 3750 4166.671875 L 3750 3333.328125 Z M 2916.671875 2500 L 3750 2500 L 3750 1666.671875 L 2916.671875 1666.671875 Z M 3750 0 L 2916.671875 0 L 2916.671875 833.328125 L 3750 833.328125 Z M 2083.328125 5000 L 2916.671875 5000 L 2916.671875 4166.671875 L 2083.328125 4166.671875 Z M 2083.328125 2500 L 2083.328125 3333.328125 L 2916.671875 3333.328125 L 2916.671875 2500 Z M 2916.671875 1666.671875 L 2916.671875 833.328125 L 2083.328125 833.328125 L 2083.328125 1666.671875 Z M 1250 3333.328125 L 1250 4166.671875 L 2083.328125 4166.671875 L 2083.328125 3333.328125 Z M 2083.328125 1666.671875 L 1250 1666.671875 L 1250 2500 L 2083.328125 2500 Z M 2083.328125 0 L 1250 0 L 1250 833.328125 L 2083.328125 833.328125 Z M 416.667969 5000 L 1250 5000 L 1250 4166.671875 L 416.667969 4166.671875 Z M 1250 2500 L 416.667969 2500 L 416.667969 3333.328125 L 1250 3333.328125 Z M 1250 833.328125 L 416.667969 833.328125 L 416.667969 1666.671875 L 1250 1666.671875 Z M 5000 4166.671875 L 5000 3333.328125 L 4583.328125 3333.328125 L 4583.328125 4166.671875 Z M 5000 2500 L 5000 1666.671875 L 4583.328125 1666.671875 L 4583.328125 2500 Z M 5000 0 L 4583.328125 0 L 4583.328125 833.328125 L 5000 833.328125 Z M 0 3333.328125 L 0 4166.671875 L 416.667969 4166.671875 L 416.667969 3333.328125 Z M 0 1666.671875 L 0 2500 L 416.667969 2500 L 416.667969 1666.671875 Z M 416.667969 0 L 416.667969 833.328125 L 0 833.328125 L 0 0 L 416.667969 0 "/>
<path style=" stroke:none;fill-rule:nonzero;fill:rgb(100%,100%,100%);fill-opacity:1;" d="M 3750 4166.671875 L 4583.328125 4166.671875 L 4583.328125 3333.328125 L 3750 3333.328125 Z M 3750 1666.671875 L 3750 2500 L 4583.328125 2500 L 4583.328125 1666.671875 Z M 4583.328125 0 L 3750 0 L 3750 833.328125 L 4583.328125 833.328125 Z M 2916.671875 5000 L 3750 5000 L 3750 4166.671875 L 2916.671875 4166.671875 Z M 2916.671875 3333.328125 L 3750 3333.328125 L 3750 2500 L 2916.671875 2500 Z M 3750 1666.671875 L 3750 833.328125 L 2916.671875 833.328125 L 2916.671875 1666.671875 Z M 2083.328125 3333.328125 L 2083.328125 4166.671875 L 2916.671875 4166.671875 L 2916.671875 3333.328125 Z M 2916.671875 2500 L 2916.671875 1666.671875 L 2083.328125 1666.671875 L 2083.328125 2500 Z M 2916.671875 0 L 2083.328125 0 L 2083.328125 833.328125 L 2916.671875 833.328125 Z M 1250 5000 L 2083.328125 5000 L 2083.328125 4166.671875 L 1250 4166.671875 Z M 1250 2500 L 1250 3333.328125 L 2083.328125 3333.328125 L 2083.328125 2500 Z M 2083.328125 1666.671875 L 2083.328125 833.328125 L 1250 833.328125 L 1250 1666.671875 Z M 416.667969 3333.328125 L 416.667969 4166.671875 L 1250 4166.671875 L 1250 3333.328125 Z M 1250 1666.671875 L 416.667969 1666.671875 L 416.667969 2500 L 1250 2500 Z M 1250 0 L 416.667969 0 L 416.667969 833.328125 L 1250 833.328125 Z M 5000 5000 L 5000 4166.671875 L 4583.328125 4166.671875 L 4583.328125 5000 Z M 5000 3333.328125 L 5000 2500 L 4583.328125 2500 L 4583.328125 3333.328125 Z M 5000 1666.671875 L 5000 833.328125 L 4583.328125 833.328125 L 4583.328125 1666.671875 Z M 0 5000 L 416.667969 5000 L 416.667969 4166.671875 L 0 4166.671875 Z M 0 2500 L 0 3333.328125 L 416.667969 3333.328125 L 416.667969 2500 Z M 416.667969 833.328125 L 416.667969 1666.671875 L 0 1666.671875 L 0 833.328125 L 416.667969 833.328125 "/>
</g>
</svg>
