<?xml version="1.0" encoding="utf-8"?>
<!-- Generator: Adobe Illustrator 24.0.1, SVG Export Plug-In . SVG Version: 6.00 Build 0)  -->
<svg version="1.1" id="Layer_1" xmlns="http://www.w3.org/2000/svg" xmlns:xlink="http://www.w3.org/1999/xlink" x="0px" y="0px"
	 viewBox="0 0 400 500" style="enable-background:new 0 0 400 500;" xml:space="preserve">
<style type="text/css">
	.st0{fill:#AEDFE1;}
	.st1{fill:#2E180E;}
	.st2{fill:#4F2510;}
	.st3{fill:#D2EDEF;}
	.st4{fill:#A11E21;}
	.st5{fill:#6B3A19;}
	.st6{fill:#7D4220;}
	.st7{fill:#E02926;}
	.st8{fill:#A32022;}
	.st9{fill:#D3EDED;}
	.st10{fill:#FFFBF1;}
	.st11{fill:#442D21;}
	.st12{fill:#AB3434;}
	.st13{fill:#C5E7EA;}
	.st14{fill:#705E55;}
	.st15{fill:#FFFFFF;}
	.st16{fill:#876657;}
	.st17{fill:#997661;}
	.st18{fill:#A57D65;}
	.st19{fill:#7E6E66;}
	.st20{fill:#633A24;}
	.st21{fill:#7A4E31;}
	.st22{fill:#8A5637;}
	.st23{fill:#937768;}
	.st24{fill:#574338;}
	.st25{fill:#B44949;}
</style>
<path class="st0" d="M100.7,126.8l19,323.9l0,0c0,0.1,0,0.3,0,0.4v0c0.8,7,23.4,13,54.5,15.1c2.6,0.2,5.4,0.3,8.1,0.5
	c3.5,0.2,7,0.3,10.6,0.3c2.3,0,4.5,0.1,6.9,0.1c0.1,0,0.3,0,0.4,0c6.1,0,12-0.1,17.7-0.4c1.5-0.1,2.9-0.1,4.4-0.2
	c13.4-0.8,25.3-2.3,34.8-4.3c12.1-2.5,20.2-5.8,22.3-9.5c0.3-0.5,0.5-1,0.5-1.5v0c0-0.1,0-0.2,0-0.4l19-323.4l0-0.5L100.7,126.8"/>
<path class="st1" d="M287.5,154.8L272.6,444c0,8.5-32.6,15.5-72.8,15.5S127,452.6,127,444l-14.9-289.2H287.5"/>
<path class="st2" d="M177.7,456.2c-28.2-2-48.6-7.6-48.6-14.3c0-7,22.6-12.9,53.2-14.6v28.8C180.8,456.2,179.3,456.2,177.7,456.2
	 M192.9,455.9V427c1.4,0,2.8,0,4.2-0.1l3.1,13.3v15.3c-0.4,0-0.9,0.1-1.3,0.1C197,455.7,195,455.8,192.9,455.9 M217.9,453.9v-26.4
	c15.3,0.9,28.6,2.8,37.9,5.4l-0.4,7.4c0,0.1,0,0.2,0,0.4v0l0,0c-0.1,0.5-0.2,1-0.5,1.5c-2.1,3.6-10,6.9-21.9,9.3
	C228.5,452.3,223.4,453.2,217.9,453.9"/>
<path class="st0" d="M107.4,126.8c0,8.3,26.3,15.4,62.9,17.9c9.3,0.6,19.2,1,29.5,1c9,0,17.7-0.3,25.9-0.8
	c15.4-0.9,29.2-2.6,40.1-4.9c13.9-2.9,23.3-6.7,25.7-11c0.4-0.7,0.6-1.5,0.6-2.2s-0.2-1.5-0.6-2.2c-2.4-4.3-11.8-8.1-25.7-11
	c-10.9-2.3-24.7-4-40.1-4.9c-8.2-0.5-16.9-0.8-25.9-0.8c-10.3,0-20.2,0.3-29.5,1C133.7,111.4,107.4,118.5,107.4,126.8"/>
<path class="st3" d="M170.3,137.2v-28.3c9.3-0.6,19.2-1,29.5-1c9,0,17.7,0.3,25.9,0.8V137c-8.2-0.5-16.9-0.8-25.9-0.8
	C189.4,136.1,179.5,136.5,170.3,137.2"/>
<path class="st4" d="M149.6,164.6l64.6,278l-12.6,3.2l-65.8-283.5C141.4,165,147.1,164.9,149.6,164.6"/>
<path class="st5" d="M112.1,154.8c0,10.3,39.3,18.6,87.7,18.6s87.7-8.4,87.7-18.6c0-10.3-39.3-18.7-87.7-18.7
	S112.1,144.5,112.1,154.8"/>
<path class="st6" d="M150.9,154.8c0,7.4,28.2,13.4,63,13.4s63-6,63-13.4s-28.2-13.4-63-13.4S150.9,147.4,150.9,154.8"/>
<path class="st7" d="M0,41.2l101.7,63.3l6.9-11.1L6.9,30.1L0,41.2"/>
<path class="st7" d="M145.1,140l-7.6,1.8l-7.6,1.8l0.5-3.4l6.4-1.5l6.4-1.5L145.1,140"/>
<path class="st8" d="M144.4,141.9l-12.7,2.9l-1.7-1.4l7.6-1.8l7.6-1.8L144.4,141.9"/>
<path class="st7" d="M144,135.3l-7.6,1.8l-7.6,1.8l0.5-3.4l6.4-1.5l6.4-1.5L144,135.3"/>
<path class="st8" d="M143.2,137.1l-6.4,1.5l-6.4,1.5l-1.6-1.3l7.6-1.8l7.6-1.8L143.2,137.1"/>
<path class="st7" d="M142.9,130.5l-7.6,1.8l-7.6,1.8c0,0,0.1-0.9,0.2-1.7c0-0.2,0.1-0.4,0.1-0.6c0-0.1,0-0.1,0-0.1c0,0,0-0.1,0-0.1
	c0,0,0,0,0,0v0v0c0-0.1,0-0.1,0-0.2c0.1-0.3,0.1-0.4,0.1-0.4l6.3-1.6l6.3-1.6c0,0,0.1,0.2,0.3,0.5c0.1,0.1,0.1,0.2,0.2,0.3l0,0l0,0
	l0,0c0,0,0,0,0,0.1c0,0,0.1,0.1,0.1,0.1c0.1,0.2,0.2,0.3,0.4,0.5C142.5,129.8,142.9,130.5,142.9,130.5"/>
<path class="st8" d="M142.1,132.4l-6.4,1.5l-6.4,1.5l-1.6-1.3l7.6-1.8l7.6-1.8L142.1,132.4"/>
<path class="st7" d="M141.6,125.3l-7.4,2.3l-7.4,2.3c0,0,0,0,0-0.1c0,0,0-0.1,0-0.1c0-0.1,0-0.1,0-0.2c0-0.3,0.1-0.6,0.1-1
	c0-0.1,0-0.2,0-0.3c0-0.1,0-0.2,0-0.3c0-0.2,0-0.3,0-0.5c0-0.1,0-0.3,0-0.3s0-0.1,0-0.1l6.1-2.4l6.1-2.4c0,0,0,0.1,0.1,0.1
	c0.1,0.1,0.2,0.2,0.3,0.3s0.3,0.3,0.4,0.5c0.1,0.1,0.1,0.2,0.2,0.3s0.1,0.2,0.2,0.3c0.3,0.4,0.6,0.8,0.8,1.1
	c0.1,0.1,0.1,0.2,0.1,0.2s0.1,0.1,0.1,0.2C141.6,125.3,141.6,125.3,141.6,125.3"/>
<path class="st8" d="M141,127.6l-6.3,1.6l-6.3,1.6c0,0,0,0-0.1,0c0,0-0.1-0.1-0.2-0.1c-0.2-0.1-0.3-0.2-0.5-0.3s-0.4-0.2-0.5-0.3
	c-0.2-0.1-0.2-0.1-0.2-0.1l7.4-2.3l7.4-2.3c0,0,0,0.1-0.1,0.3c-0.1,0.2-0.1,0.5-0.2,0.8c-0.1,0.3-0.2,0.6-0.2,0.8
	c0,0.1-0.1,0.2-0.1,0.3C141,127.5,141,127.6,141,127.6"/>
<path class="st7" d="M139.6,119.8l-7.1,3.2l-7.1,3.2c0,0,0-0.2,0-0.4c0-0.3,0-0.6,0-1c0-0.1,0-0.2,0-0.3s0-0.2,0-0.3
	c0-0.1,0-0.2,0-0.2c0,0,0-0.1,0-0.1c0,0,0-0.1,0-0.1c0-0.3,0-0.4,0-0.4l5.7-3.2l5.7-3.2c0,0,0.2,0.2,0.5,0.4c0,0,0.1,0.1,0.1,0.1
	s0.1,0.1,0.1,0.1c0.1,0.1,0.2,0.2,0.2,0.2s0.2,0.2,0.3,0.3c0.1,0.1,0.2,0.2,0.3,0.3c0.4,0.4,0.7,0.7,1,1
	C139.4,119.7,139.6,119.8,139.6,119.8"/>
<path class="st8" d="M139.2,122.2l-6.1,2.4l-6.1,2.4c0,0-0.1-0.1-0.3-0.1c-0.1,0-0.2-0.1-0.3-0.1c-0.1,0-0.1-0.1-0.2-0.1
	s-0.1-0.1-0.2-0.1c-0.2-0.1-0.4-0.2-0.6-0.2c-0.1,0-0.1-0.1-0.2-0.1c-0.1,0-0.1,0-0.1,0l7.1-3.2l7.1-3.2c0,0,0,0,0,0.1s0,0.2,0,0.3
	c0,0.2-0.1,0.5-0.1,0.8c0,0.1,0,0.1,0,0.2s0,0.1,0,0.2c0,0.1,0,0.3-0.1,0.4C139.2,122,139.2,122.2,139.2,122.2"/>
<path class="st7" d="M136.8,114.7l-6.6,4.1l-6.6,4.1c0,0,0,0,0-0.1c0,0,0-0.1,0-0.1c0,0,0-0.1,0-0.1s0-0.1,0-0.1
	c0-0.1,0-0.3-0.1-0.4c0-0.1,0-0.2,0-0.3c0-0.1,0-0.2,0-0.3c0-0.2-0.1-0.3-0.1-0.5c0-0.2-0.1-0.3-0.1-0.4s-0.1-0.2-0.1-0.3
	c0-0.1,0-0.1,0-0.1l5.2-3.9l5.2-4c0,0,0.1,0,0.1,0.1s0.2,0.2,0.4,0.3c0.1,0.1,0.3,0.2,0.5,0.4c0.2,0.1,0.4,0.3,0.6,0.4
	c0.1,0.1,0.2,0.2,0.3,0.2s0.2,0.2,0.3,0.2c0.2,0.2,0.4,0.3,0.5,0.4c0,0,0.1,0.1,0.1,0.1c0,0,0.1,0.1,0.1,0.1
	c0.1,0.1,0.1,0.1,0.1,0.1C136.7,114.6,136.8,114.7,136.8,114.7"/>
<path class="st8" d="M136.7,117l-5.7,3.2l-5.7,3.2c0,0-0.1,0-0.3-0.1c-0.2-0.1-0.4-0.1-0.6-0.2c-0.1,0-0.2-0.1-0.3-0.1
	s-0.2-0.1-0.3-0.1c-0.2,0-0.3-0.1-0.3-0.1l6.6-4.1l6.6-4.1c0,0,0,0.2,0,0.4c0,0.1,0,0.2,0,0.4c0,0.1,0,0.3,0,0.4c0,0.3,0,0.6,0,0.8
	C136.7,116.9,136.7,117,136.7,117"/>
<path class="st7" d="M133.3,109.9l-6,5l-6,5c0,0,0-0.2-0.1-0.4c0-0.1,0-0.1-0.1-0.2c0,0,0-0.1,0-0.1s0-0.1,0-0.1
	c-0.1-0.2-0.1-0.3-0.1-0.5c0,0,0-0.1,0-0.1s0-0.1,0-0.1c0-0.1-0.1-0.2-0.1-0.3c-0.1-0.2-0.1-0.3-0.1-0.4c-0.1-0.3-0.2-0.4-0.2-0.4
	l9.3-9.2c0,0,0.2,0.1,0.6,0.3c0.2,0.1,0.4,0.2,0.6,0.3c0.1,0.1,0.2,0.1,0.3,0.2c0.1,0,0.1,0.1,0.2,0.1s0.1,0.1,0.2,0.1
	c0.2,0.1,0.4,0.3,0.6,0.4c0.1,0,0.1,0.1,0.1,0.1s0.1,0.1,0.1,0.1c0.1,0.1,0.2,0.1,0.3,0.2C133.1,109.8,133.3,109.9,133.3,109.9"/>
<path class="st8" d="M133.6,112.2l-5.2,4l-5.2,3.9c0,0-0.1,0-0.3-0.1c-0.1,0-0.2,0-0.3-0.1c-0.1,0-0.2,0-0.3-0.1
	c-0.2,0-0.4-0.1-0.6-0.1c-0.1,0-0.2,0-0.2,0c-0.1,0-0.1,0-0.1,0l6-5l6-5c0,0,0,0,0,0.1s0,0.2,0,0.3c0,0.2,0.1,0.5,0.1,0.8
	c0,0.1,0,0.3,0,0.4c0,0.1,0,0.3,0,0.4C133.6,112.1,133.6,112.2,133.6,112.2"/>
<path class="st7" d="M129.3,105.7l-5.3,5.7l-5.3,5.7c0,0,0,0,0-0.1c0-0.1-0.1-0.2-0.1-0.3c-0.1-0.1-0.1-0.3-0.2-0.4
	c0-0.1-0.1-0.2-0.1-0.2c0-0.1-0.1-0.2-0.1-0.2c-0.1-0.2-0.2-0.3-0.2-0.5s-0.1-0.3-0.2-0.4s-0.1-0.2-0.2-0.3s-0.1-0.1-0.1-0.1l4-5.2
	l4-5.2c0,0,0.1,0,0.2,0.1c0.1,0,0.3,0.1,0.4,0.2c0.2,0.1,0.4,0.1,0.6,0.2c0.2,0.1,0.4,0.2,0.7,0.3c0.1,0.1,0.2,0.1,0.3,0.1
	c0.1,0.1,0.2,0.1,0.3,0.1c0.2,0.1,0.4,0.2,0.6,0.3c0.2,0.1,0.3,0.2,0.4,0.2C129.2,105.7,129.3,105.7,129.3,105.7"/>
<path class="st8" d="M129.8,107.9l-9.3,9.2c0,0-0.1,0-0.3,0s-0.4,0-0.6,0c-0.2,0-0.4,0-0.6,0c-0.2,0-0.3,0-0.3,0l5.3-5.7l5.3-5.7
	c0,0,0,0.1,0.1,0.3c0.1,0.2,0.1,0.5,0.2,0.8c0.1,0.3,0.1,0.6,0.2,0.8C129.8,107.8,129.8,107.9,129.8,107.9"/>
<path class="st7" d="M124.7,102l-4.4,6.4l-4.4,6.4c0,0,0,0,0,0c0,0,0-0.1,0-0.1c0-0.1-0.1-0.2-0.2-0.3c-0.1-0.1-0.1-0.3-0.2-0.4
	c-0.1-0.1-0.2-0.3-0.3-0.4c0,0-0.1-0.1-0.1-0.1c0,0,0,0,0-0.1l0,0l0,0c-0.1-0.1-0.1-0.2-0.2-0.3c-0.1-0.2-0.2-0.3-0.3-0.4
	c-0.2-0.3-0.3-0.4-0.3-0.4l3.5-5.6l3.5-5.6c0,0,0.2,0,0.5,0.1c0.2,0,0.3,0.1,0.5,0.1c0.1,0,0.2,0,0.3,0.1c0,0,0,0,0,0l0.1,0
	c0,0,0.1,0,0.1,0c0.1,0,0.1,0,0.2,0.1c0.2,0.1,0.5,0.1,0.7,0.2c0.2,0.1,0.4,0.1,0.6,0.2s0.3,0.1,0.4,0.1
	C124.6,101.9,124.6,102,124.7,102C124.7,102,124.7,102,124.7,102"/>
<path class="st8" d="M125.6,104.2l-4,5.2l-4,5.2c0,0-0.5,0-0.9,0.1c-0.4,0.1-0.9,0.1-0.9,0.1l4.4-6.4l4.4-6.4c0,0,0.2,0.5,0.4,1.1
	C125.3,103.6,125.6,104.2,125.6,104.2"/>
<path class="st7" d="M120.3,99.2l-4.1,6.6l-4.1,6.6l-2.1-2.7l3.5-5.6l3.5-5.6L120.3,99.2"/>
<path class="st8" d="M121,101.1l-3.5,5.6l-3.5,5.6l-2.1,0.2l4.1-6.6l4.1-6.6L121,101.1"/>
<path class="st7" d="M116.2,96.6l-4.1,6.6l-4.1,6.6l-2.1-2.7l3.5-5.6l3.5-5.6L116.2,96.6"/>
<path class="st8" d="M116.9,98.5l-3.5,5.6l-3.5,5.6l-2.1,0.2l4.1-6.6l4.1-6.6L116.9,98.5"/>
<path class="st7" d="M112.1,94.1l-4.1,6.6l-4.1,6.6l-2.2-2.8l3.4-5.5l3.4-5.5L112.1,94.1"/>
<path class="st8" d="M112.8,96l-3.5,5.6l-3.5,5.6l-2.1,0.2l4.1-6.6l4.1-6.6L112.8,96"/>
<path class="st7" d="M144.4,141.9l5.3,22.7c-2.5,0.2-8.2,0.3-13.9-2.3l-4.1-17.4L144.4,141.9"/>
<path class="st9" d="M117.8,114.9c0.1,0.1,0.1,0.3,0.2,0.4s0.1,0.3,0.2,0.5c0,0.1,0.1,0.2,0.1,0.2c0,0.1,0.1,0.2,0.1,0.2
	c0.1,0.2,0.1,0.3,0.2,0.4c0.1,0.1,0.1,0.2,0.1,0.3c0,0.1,0,0.1,0,0.1s0.1,0,0.3,0s0.4,0,0.6,0s0.4,0,0.6,0c0.1,0,0.1,0,0.1,0
	c-8.3,2.8-13,6.1-13,9.7c0,4.6,8.2,8.9,21.7,12.2c4.5,1.1,9.6,2.1,15.2,2.9l0,0l0.6,2.4c-5.3-0.8-10.2-1.6-14.7-2.5
	c-18.3-3.8-29.6-9.1-29.6-15C100.7,122.4,107,118.3,117.8,114.9"/>
<path class="st10" d="M200.1,195.9c-1.1,0-1.9-0.9-1.9-1.9s0.9-1.9,1.9-1.9c0,0,0.1,0,0.1,0v3.8
	C200.2,195.9,200.2,195.9,200.1,195.9"/>
<path class="st10" d="M167.8,220.2c-2.1,0-4-0.6-5.7-1.6l-3.4-14.7c1.9-3,5.2-5,9.1-5c5.9,0,10.7,4.8,10.7,10.7
	C178.5,215.4,173.7,220.2,167.8,220.2"/>
<path class="st10" d="M162.1,218.6c-3-1.9-5-5.2-5-9.1c0-2.1,0.6-4,1.6-5.6L162.1,218.6"/>
<path class="st10" d="M194.8,225.5c-0.7,0-1.3-0.2-1.8-0.5v-5.9c0.5-0.3,1.1-0.5,1.8-0.5c1.9,0,3.5,1.6,3.5,3.5
	C198.2,224,196.7,225.5,194.8,225.5"/>
<path class="st10" d="M182.4,195.8c-1-0.3-1.8-1.3-1.8-2.4c0-1.1,0.8-2.1,1.8-2.4V195.8"/>
<path class="st10" d="M140.2,200.4c-5,0-9.1-4.1-9.1-9.1c0-5,4.1-9.1,9.1-9.1c0,0,0.1,0,0.1,0l4,17.3
	C143.1,200,141.7,200.4,140.2,200.4"/>
<path class="st10" d="M144.3,199.4l-4-17.3c5,0.1,9,4.1,9,9.1C149.3,194.8,147.3,197.9,144.3,199.4"/>
<path class="st11" d="M156.2,250.5c-1.1-1-1.7-2.4-1.7-4c0-0.7,0.1-1.3,0.3-1.9L156.2,250.5"/>
<path class="st10" d="M160,252c-1.5,0-2.8-0.6-3.8-1.5l-1.4-5.9c0.8-2.1,2.8-3.6,5.2-3.6c3.1,0,5.5,2.5,5.5,5.5
	C165.5,249.6,163.1,252,160,252"/>
<path class="st10" d="M178.4,281.4c-0.6,0-1.2-0.1-1.8-0.2l-2.9-12.3c1.2-1.1,2.9-1.7,4.6-1.7c1.4,0,2.8,0.4,3.9,1.2v11.9
	C181.2,281,179.9,281.4,178.4,281.4"/>
<path class="st10" d="M176.7,281.2c-3.1-0.8-5.3-3.6-5.3-6.9c0-2.1,1-4.1,2.5-5.4L176.7,281.2"/>
<path class="st10" d="M156.7,302.6c-1.8,0-3.3-1.5-3.3-3.3s1.5-3.3,3.3-3.3s3.3,1.5,3.3,3.3C160,301.1,158.5,302.6,156.7,302.6"/>
<path class="st10" d="M163.9,319.7c-2.2,0-3.9-1.8-3.9-3.9s1.8-3.9,3.9-3.9s3.9,1.8,3.9,3.9S166.1,319.7,163.9,319.7"/>
<path class="st11" d="M182.4,305.6l-0.9-3.9c0.2-0.4,0.6-0.7,0.9-0.9V305.6"/>
<path class="st10" d="M182.4,306.8c-0.9-0.7-1.5-1.8-1.5-3c0-0.8,0.2-1.5,0.6-2.1l0.9,3.9V306.8"/>
<path class="st10" d="M172.1,294.7c-1.1,0-2-0.9-2-2c0-1.1,0.9-2,2-2s2,0.9,2,2C174.1,293.8,173.2,294.7,172.1,294.7"/>
<path class="st10" d="M157.8,276.6c-1.2,0-2.2-1-2.2-2.2s1-2.2,2.2-2.2s2.2,1,2.2,2.2C160,275.6,159,276.6,157.8,276.6"/>
<path class="st10" d="M182.4,337.1c-0.6-0.8-1-1.9-1-3c0-1.1,0.4-2.1,1-3V337.1"/>
<path class="st10" d="M167.8,335c-1.3,0-2.3-1-2.3-2.3s1-2.3,2.3-2.3s2.3,1,2.3,2.3S169.1,335,167.8,335"/>
<path class="st10" d="M173.6,367.8c-4,0-7.2-3.2-7.2-7.2c0-4,3.2-7.2,7.2-7.2c4,0,7.2,3.2,7.2,7.2
	C180.8,364.5,177.6,367.8,173.6,367.8"/>
<path class="st10" d="M170.3,389.9c-2.7,0-4.9-2.2-4.9-4.9s2.2-4.9,4.9-4.9s4.9,2.2,4.9,4.9S173,389.9,170.3,389.9"/>
<path class="st10" d="M154.7,375.8c-1.7,0-3-1.4-3-3c0-1.7,1.4-3,3-3s3,1.4,3,3C157.8,374.5,156.4,375.8,154.7,375.8"/>
<path class="st10" d="M151.5,354.5c-1.8,0-3.3-1.5-3.3-3.3c0-1.8,1.5-3.3,3.3-3.3c1.8,0,3.3,1.5,3.3,3.3
	C154.7,353,153.3,354.5,151.5,354.5"/>
<path class="st10" d="M199.4,404.4c-1.6,0-3-1.3-3-3c0-1.6,1.3-3,3-3c0.3,0,0.6,0,0.9,0.1v5.7C200,404.4,199.7,404.4,199.4,404.4"/>
<path class="st10" d="M179.8,410.4c-1.9,0-3.4-1.5-3.4-3.4s1.5-3.4,3.4-3.4c1,0,1.9,0.4,2.5,1.1v4.6
	C181.7,410,180.8,410.4,179.8,410.4"/>
<path class="st10" d="M162,405.8c-2.4,0-4.4-2-4.4-4.4s2-4.4,4.4-4.4s4.4,2,4.4,4.4S164.5,405.8,162,405.8"/>
<path class="st10" d="M163.2,425.2c-1.8,0-3.2-1.4-3.2-3.2s1.4-3.2,3.2-3.2s3.2,1.4,3.2,3.2C166.4,423.8,165,425.2,163.2,425.2"/>
<path class="st10" d="M193.2,422c-0.1,0-0.2,0-0.3,0v-6.3c0.1,0,0.2,0,0.3,0c0.5,0,1,0.1,1.4,0.3l1.1,4.7
	C195.1,421.5,194.2,422,193.2,422"/>
<path class="st10" d="M195.7,420.8l-1.1-4.7c1,0.5,1.7,1.6,1.7,2.8C196.4,419.6,196.1,420.2,195.7,420.8"/>
<path class="st12" d="M192.9,395v-6.4c1.1,0.7,1.8,1.9,1.8,3.2S194,394.4,192.9,395"/>
<path class="st10" d="M159.1,184.4c-1.1,0-1.9-0.9-1.9-1.9s0.9-1.9,1.9-1.9s1.9,0.9,1.9,1.9C161,183.5,160.2,184.4,159.1,184.4"/>
<path class="st10" d="M130.2,177.3c-1.4,0-2.6-1.2-2.6-2.6c0-1.4,1.2-2.6,2.6-2.6c1.4,0,2.6,1.2,2.6,2.6
	C132.8,176.1,131.6,177.3,130.2,177.3"/>
<path class="st10" d="M133.8,232.1c-4.2,0-7.6-3.4-7.6-7.6s3.4-7.6,7.6-7.6s7.6,3.4,7.6,7.6S138,232.1,133.8,232.1"/>
<path class="st10" d="M268.5,192.5c-4.2,0-7.6-3.4-7.6-7.6c0-4.2,3.4-7.6,7.6-7.6c0.4,0,0.7,0,1,0.1l-0.8,15.2
	C268.6,192.5,268.6,192.5,268.5,192.5"/>
<path class="st10" d="M266.9,226.5c-2.6,0-4.8-2.1-4.8-4.8c0-2.6,2.1-4.8,4.8-4.8c0.2,0,0.3,0,0.5,0L266.9,226.5L266.9,226.5"/>
<path class="st11" d="M264.2,264c-1.5,0-2.6-1.2-2.6-2.6s1.2-2.6,2.6-2.6c0.3,0,0.6,0.1,0.9,0.2l-0.3,5
	C264.7,263.9,264.5,264,264.2,264"/>
<path class="st10" d="M254.7,278c-1.9,0-3.5-1.6-3.5-3.5s1.6-3.5,3.5-3.5s3.5,1.6,3.5,3.5C258.2,276.4,256.6,278,254.7,278"/>
<path class="st10" d="M255.1,257.9c-1,0-1.8-0.8-1.8-1.8c0-1,0.8-1.8,1.8-1.8s1.8,0.8,1.8,1.8C256.9,257.1,256.1,257.9,255.1,257.9"
	/>
<path class="st10" d="M247.3,337.1c-2.2,0-4-1.8-4-4s1.8-4,4-4s4,1.8,4,4C251.3,335.3,249.5,337.1,247.3,337.1"/>
<path class="st10" d="M251,367.4c-1.2,0-2.2-1-2.2-2.2s1-2.2,2.2-2.2s2.2,1,2.2,2.2C253.2,366.4,252.2,367.4,251,367.4"/>
<path class="st10" d="M251.5,398.5c-3.7,0-6.7-3-6.7-6.7s3-6.7,6.7-6.7c3.3,0,6.1,2.4,6.6,5.5l-0.2,3.1
	C257.1,396.4,254.5,398.5,251.5,398.5"/>
<path class="st10" d="M247.6,415c-1.9,0-3.4-1.5-3.4-3.4s1.5-3.4,3.4-3.4s3.4,1.5,3.4,3.4C251,413.5,249.5,415,247.6,415"/>
<path class="st13" d="M182.4,461.9c-2.6-0.1-5.1-0.3-7.6-0.4c-20.5-1.4-37.1-4.5-45.7-8.5c6.2,1,13,1.7,20.4,2.3
	c9,1.8,20.3,3.2,32.8,3.8L182.4,461.9"/>
<path class="st14" d="M182.4,459c-12.5-0.6-23.8-2-32.8-3.8c0.7,0.1,1.5,0.1,2.2,0.2c7.9,0.5,16.3,0.8,25.1,0.8c0.3,0,0.6,0,0.9,0
	c1.5,0.1,3.1,0.2,4.6,0.3L182.4,459"/>
<path class="st15" d="M293.8,126.8h-1.6c0-0.8-0.2-1.5-0.6-2.2c-2-3.5-8.7-6.7-18.7-9.3l0,0l0.1-2.7c9.5,2.2,16.8,4.8,21.2,7.7
	L293.8,126.8"/>
<path class="st13" d="M217.9,461.8V459c31.5-1.7,54.7-7.8,54.7-15l14.8-288.8c0-0.1,0-0.3,0-0.4c0-4-6-7.8-16.2-10.8l0.1-2.6
	l0.1-2.7c10.7-2.7,17.9-6,20-9.7c0.4-0.7,0.6-1.5,0.6-2.2h1.6l-0.4,7l-17.8,312.9c0,0.1,0,0.2,0,0.3v0l0,0c-0.1,0.5-0.2,1-0.5,1.5
	c-2,3.5-9.8,6.7-21.3,9.1c-9,1.9-20.4,3.3-33.2,4.1C219.7,461.7,218.8,461.8,217.9,461.8"/>
<path class="st14" d="M217.9,459v-2.5c30.3-1.7,52.6-7.6,52.6-14.5c0-3.5-5.5-6.6-14.6-9.1l2.1-39.2c0.2-0.6,0.3-1.2,0.3-1.9
	c0-0.4,0-0.8-0.1-1.2l6.8-126.7c1.1-0.3,2-1.3,2-2.6c0-1.1-0.7-2.1-1.7-2.5l1.7-32.3c2.6,0,4.8-2.1,4.8-4.8c0-2.5-1.9-4.5-4.3-4.8
	l1.3-24.4c4.1-0.1,7.4-3.5,7.4-7.6c0-3.9-2.9-7.1-6.6-7.6l0.6-11.4c10.5-3,16.9-6.7,17.3-10.7L272.6,444
	C272.6,451.2,249.4,457.3,217.9,459"/>
<path class="st16" d="M217.9,456.5v-2.6c5.5-0.7,10.6-1.5,15.1-2.5c11.8-2.5,19.8-5.7,21.9-9.3c0.3-0.5,0.5-1,0.5-1.5l0,0v0
	c0-0.1,0-0.2,0-0.4l0.4-7.4c9.2,2.5,14.6,5.7,14.6,9.1C270.5,448.9,248.2,454.8,217.9,456.5"/>
<path class="st13" d="M271.6,138.7l1.3-23.4c10,2.7,16.7,5.8,18.7,9.3c0.4,0.7,0.6,1.5,0.6,2.2s-0.2,1.5-0.6,2.2
	C289.5,132.7,282.3,136,271.6,138.7"/>
<path class="st17" d="M270.1,165.9l0.3-5.2c4.2-1.8,6.6-3.8,6.6-6c0-2-2.1-4-6-5.7l0.3-5.1c10.2,3.1,16.2,6.8,16.2,10.8
	c0,0.1,0,0.3,0,0.4C287,159.2,280.7,162.9,270.1,165.9"/>
<path class="st18" d="M270.4,160.8l0.6-11.7c3.8,1.7,6,3.7,6,5.7C277,156.9,274.6,159,270.4,160.8"/>
<path class="st19" d="M268.7,192.5l0.8-15.2c3.7,0.5,6.6,3.7,6.6,7.6C276.1,189,272.8,192.4,268.7,192.5"/>
<path class="st19" d="M266.9,226.5l0.5-9.6c2.4,0.3,4.3,2.3,4.3,4.8C271.7,224.4,269.5,226.5,266.9,226.5"/>
<path class="st10" d="M264.9,263.9l0.3-5c1,0.4,1.7,1.4,1.7,2.5C266.9,262.5,266,263.6,264.9,263.9"/>
<path class="st10" d="M257.9,393.6l0.2-3.1c0.1,0.4,0.1,0.8,0.1,1.2C258.2,392.4,258.1,393,257.9,393.6"/>
<path class="st11" d="M217.9,427.4c-2.4-0.1-4.9-0.2-7.4-0.3l-10.3-44.5V195.9c1-0.1,1.8-0.9,1.8-1.9s-0.8-1.9-1.8-1.9v-18.6
	c6.1,0,12-0.1,17.7-0.4L217.9,427.4"/>
<path class="st20" d="M200.2,455.5v-15.3l1.3,5.6l12.6-3.2l-3.6-15.5c2.5,0.1,4.9,0.2,7.4,0.3v26.4
	C212.4,454.5,206.5,455.1,200.2,455.5"/>
<path class="st12" d="M201.6,445.8l-1.3-5.6v-35.9c1.2-0.4,2.1-1.5,2.1-2.9s-0.9-2.5-2.1-2.9v-16l10.3,44.5l3.6,15.5L201.6,445.8"/>
<path class="st21" d="M200.2,173.5v-5.6c4.4,0.2,9,0.3,13.7,0.3c1.3,0,2.6,0,4,0v4.9C212.2,173.3,206.3,173.4,200.2,173.5"/>
<path class="st22" d="M213.9,168.2c-4.7,0-9.3-0.1-13.7-0.3v-22.2c6.1,0,11.9-0.1,17.7-0.4v22.9
	C216.6,168.2,215.3,168.2,213.9,168.2"/>
<path class="st10" d="M200.2,195.9v-3.8c1,0.1,1.8,0.9,1.8,1.9C202,195,201.2,195.9,200.2,195.9"/>
<path class="st10" d="M200.2,404.3v-5.7c1.2,0.4,2.1,1.5,2.1,2.9C202.3,402.8,201.4,403.9,200.2,404.3"/>
<path class="st23" d="M200.2,457v-1.5c6.3-0.4,12.2-1,17.7-1.6v2.6C212.3,456.8,206.3,457,200.2,457"/>
<path class="st11" d="M182.4,427.4v-18.1c0.6-0.6,0.9-1.4,0.9-2.3c0-0.9-0.3-1.7-0.9-2.3v-41.5l1.5,6.5c-0.4,0.6-0.6,1.4-0.6,2.2
	c0,1.5,0.8,2.7,1.9,3.4l3.2,13.9c-0.7,0.7-1.1,1.6-1.1,2.7c0,1.7,1.1,3.1,2.6,3.6l3.1,13.4v6.9c-1.6,0.1-2.9,1.5-2.9,3.1
	s1.3,3,2.9,3.1v5C189.3,427.1,185.8,427.2,182.4,427.4 M192.9,351.2l-3.2-13.6c0.9-0.9,1.5-2.2,1.5-3.6c0-2.2-1.4-4.1-3.4-4.7
	l-5.2-22.4c0.5,0.3,1.2,0.5,1.8,0.5c2,0,3.7-1.7,3.7-3.7s-1.7-3.7-3.7-3.7c-0.8,0-1.6,0.3-2.1,0.7v-20.5c1.9-1.3,3.2-3.5,3.2-5.9
	c0-2.5-1.3-4.7-3.2-5.9v-72.5c0.2,0.1,0.5,0.1,0.7,0.1c1.4,0,2.5-1.1,2.5-2.5s-1.1-2.5-2.5-2.5c-0.2,0-0.5,0-0.7,0.1v-17.9
	c3.5,0.1,7,0.3,10.6,0.3v45.7c-1,0.6-1.7,1.7-1.7,2.9s0.7,2.4,1.7,2.9L192.9,351.2"/>
<path class="st20" d="M182.4,456.2v-28.8c3.4-0.2,7-0.3,10.6-0.4v28.9C189.5,456,185.9,456.1,182.4,456.2"/>
<path class="st12" d="M192.9,408.8l-3.1-13.4c0.4,0.1,0.8,0.2,1.2,0.2c0.7,0,1.4-0.2,1.9-0.5V408.8 M188.4,389.1l-3.2-13.9
	c0.6,0.4,1.3,0.6,2.1,0.6c2.2,0,4-1.8,4-4c0-2.2-1.8-4-4-4c-1.4,0-2.7,0.8-3.4,1.9l-1.5-6.5v-26.1c0.9,1.2,2.4,2,4,2
	c1.4,0,2.6-0.5,3.5-1.4l3.2,13.6v37.4c-0.6-0.3-1.2-0.5-1.9-0.5C190,388.1,189.1,388.5,188.4,389.1 M182.4,331.1v-24.3
	c0.1,0.1,0.2,0.1,0.3,0.2l5.2,22.4c-0.5-0.2-1-0.2-1.5-0.2C184.7,329.1,183.3,329.9,182.4,331.1"/>
<path class="st21" d="M192.9,173.4c-3.6-0.1-7.1-0.2-10.6-0.3v-6.7c3.4,0.4,6.9,0.8,10.6,1V173.4"/>
<path class="st22" d="M192.9,167.4c-3.7-0.3-7.3-0.6-10.6-1v-21.1c3.5,0.1,7,0.2,10.6,0.3V167.4"/>
<path class="st24" d="M192.9,225c-1-0.6-1.7-1.7-1.7-2.9s0.7-2.3,1.7-2.9V225"/>
<path class="st10" d="M183.1,195.9c-0.2,0-0.5,0-0.7-0.1V191c0.2-0.1,0.5-0.1,0.7-0.1c1.4,0,2.5,1.1,2.5,2.5
	C185.6,194.8,184.4,195.9,183.1,195.9"/>
<path class="st10" d="M182.4,280.2v-11.9c1.9,1.3,3.2,3.5,3.2,5.9C185.6,276.8,184.3,279,182.4,280.2"/>
<path class="st10" d="M184.5,307.5c-0.7,0-1.3-0.2-1.8-0.5l-0.3-1.4v-4.8c0.6-0.4,1.4-0.7,2.1-0.7c2,0,3.7,1.7,3.7,3.7
	C188.2,305.8,186.5,307.5,184.5,307.5"/>
<path class="st25" d="M182.7,307c-0.1-0.1-0.2-0.1-0.3-0.2v-1.2L182.7,307"/>
<path class="st24" d="M189.8,337.6l-1.9-8.3c2,0.6,3.4,2.5,3.4,4.7C191.3,335.5,190.7,336.7,189.8,337.6"/>
<path class="st10" d="M186.3,339c-1.6,0-3.1-0.8-4-2v-6c0.9-1.2,2.4-2,4-2c0.5,0,1.1,0.1,1.5,0.2l1.9,8.3
	C188.9,338.5,187.7,339,186.3,339"/>
<path class="st10" d="M185.2,375.2c-1.1-0.7-1.9-2-1.9-3.4c0-0.8,0.2-1.5,0.6-2.2L185.2,375.2"/>
<path class="st10" d="M187.3,375.8c-0.8,0-1.5-0.2-2.1-0.6l-1.3-5.6c0.7-1.1,2-1.9,3.4-1.9c2.2,0,4,1.8,4,4
	C191.3,374,189.5,375.8,187.3,375.8"/>
<path class="st10" d="M182.4,409.3v-4.6c0.6,0.6,0.9,1.4,0.9,2.3C183.2,407.9,182.9,408.6,182.4,409.3"/>
<path class="st10" d="M192.9,422c-1.6-0.1-2.9-1.5-2.9-3.1s1.3-3,2.9-3.1V422"/>
<path class="st10" d="M189.8,395.4c-1.5-0.5-2.6-1.9-2.6-3.6c0-1,0.4-2,1.1-2.7L189.8,395.4"/>
<path class="st10" d="M191,395.6c-0.4,0-0.8-0.1-1.2-0.2l-1.4-6.2c0.7-0.7,1.6-1.1,2.6-1.1c0.7,0,1.4,0.2,1.9,0.5v6.4
	C192.4,395.4,191.7,395.6,191,395.6"/>
<path class="st9" d="M133.5,111.1c0,0.1,0,0.3,0,0.4c0,0.1,0,0.3,0,0.4c0,0.2,0,0.4,0,0.4s0.1,0,0.1,0.1s0.2,0.2,0.4,0.3
	c0.1,0.1,0.3,0.2,0.5,0.4c0.1,0.1,0.3,0.2,0.5,0.4c16.7-3.3,39.5-5.4,64.7-5.4c29.7,0,56.1,2.9,73,7.3c12.1,3.2,19.4,7.2,19.4,11.6
	c0,4.5-7.7,8.6-20.6,11.9c-13.3,3.4-32.1,5.8-53.7,6.6c-5.7,0.2-11.6,0.4-17.7,0.4c-0.1,0-0.3,0-0.4,0c-2.3,0-4.6,0-6.9-0.1
	c-3.6-0.1-7.1-0.1-10.6-0.3c-14.1-0.6-27-1.8-38-3.4l0,0l0.6,2.4c11.1,1.6,23.8,2.7,37.4,3.2c3.5,0.1,7,0.2,10.6,0.3
	c2.3,0,4.6,0.1,6.9,0.1c0.1,0,0.3,0,0.4,0c6,0,11.9-0.1,17.7-0.4c20.9-0.8,39.4-3,53.5-6.2c9.7-2.1,17.2-4.7,21.9-7.6
	c3.6-2.2,5.6-4.5,5.6-7c0-2.3-1.7-4.4-4.8-6.5c-4.4-2.9-11.7-5.5-21.2-7.7c-18.1-4.2-44.2-6.9-73.2-6.9
	C174.3,105.7,151,107.8,133.5,111.1"/>
</svg>
