<?xml version="1.0" encoding="utf-8"?>
<!-- Generator: Adobe Illustrator 24.0.1, SVG Export Plug-In . SVG Version: 6.00 Build 0)  -->
<svg version="1.1" id="Layer_1" xmlns="http://www.w3.org/2000/svg" xmlns:xlink="http://www.w3.org/1999/xlink" x="0px" y="0px"
	 viewBox="0 0 400 500" style="enable-background:new 0 0 400 500;" xml:space="preserve">
<style type="text/css">
	.st0{fill:#AEDFE1;}
	.st1{fill:url(#SVGID_1_);}
	.st2{fill:#FADC00;}
	.st3{fill:#D2EDEF;}
	.st4{fill:#A11E21;}
	.st5{fill:#FFF186;}
	.st6{fill:#FBE808;}
	.st7{fill:#E02926;}
	.st8{fill:#A32022;}
	.st9{fill:#D3EDED;}
	.st10{fill:#FFFBF1;}
	.st11{fill:#AB3434;}
	.st12{fill:#FFFFFF;}
	.st13{fill:#FDEED1;}
	.st14{fill:#C5E7EA;}
	.st15{opacity:0.42;fill:#FFF186;enable-background:new    ;}
	.st16{fill:#FEEDCF;}
	.st17{fill:#B44949;}
	.st18{opacity:0.42;fill:#FEF59A;enable-background:new    ;}
	.st19{fill:#FEF59A;}
</style>
<g>
	<path class="st0" d="M101.3,126.2l19,323.9l0,0c0,0.1,0,0.3,0,0.4l0,0c0.8,7,23.4,13,54.5,15.1c2.6,0.2,5.4,0.3,8.1,0.5
		c3.5,0.2,7,0.3,10.6,0.3c2.3,0,4.5,0.1,6.9,0.1c0.1,0,0.3,0,0.4,0c6.1,0,12-0.1,17.7-0.4c1.5-0.1,2.9-0.1,4.4-0.2
		c13.4-0.8,25.3-2.3,34.8-4.3c12.1-2.5,20.2-5.8,22.3-9.5c0.3-0.5,0.5-1,0.5-1.5l0,0c0-0.1,0-0.2,0-0.4l19-323.4v-0.5L101.3,126.2"
		/>
	
		<linearGradient id="SVGID_1_" gradientUnits="userSpaceOnUse" x1="200.35" y1="279.2949" x2="200.35" y2="100.6763" gradientTransform="matrix(1 0 0 -1 0 502)">
		<stop  offset="0" style="stop-color:#E5E64C"/>
		<stop  offset="1" style="stop-color:#CCF063"/>
	</linearGradient>
	<path class="st1" d="M288.1,154.2l-14.9,289.2c0,8.5-32.6,15.5-72.8,15.5s-72.8-6.9-72.8-15.5l-14.9-289.2L288.1,154.2"/>
	<path class="st2" d="M178.3,455.6c-28.2-2-48.6-7.6-48.6-14.3c0-7,22.6-12.9,53.2-14.6v28.8C181.4,455.6,179.9,455.6,178.3,455.6
		 M193.5,455.3v-28.9c1.4,0,2.8,0,4.2-0.1l3.1,13.3v15.3c-0.4,0-0.9,0.1-1.3,0.1C197.6,455.1,195.6,455.2,193.5,455.3 M218.5,453.3
		v-26.4c15.3,0.9,28.6,2.8,37.9,5.4l-0.4,7.4c0,0.1,0,0.2,0,0.4l0,0l0,0c-0.1,0.5-0.2,1-0.5,1.5c-2.1,3.6-10,6.9-21.9,9.3
		C229.1,451.7,224,452.6,218.5,453.3"/>
	<path class="st0" d="M108,126.2c0,8.3,26.3,15.4,62.9,17.9c9.3,0.6,19.2,1,29.5,1c9,0,17.7-0.3,25.9-0.8
		c15.4-0.9,29.2-2.6,40.1-4.9c13.9-2.9,23.3-6.7,25.7-11c0.4-0.7,0.6-1.5,0.6-2.2s-0.2-1.5-0.6-2.2c-2.4-4.3-11.8-8.1-25.7-11
		c-10.9-2.3-24.7-4-40.1-4.9c-8.2-0.5-16.9-0.8-25.9-0.8c-10.3,0-20.2,0.3-29.5,1C134.3,110.8,108,117.9,108,126.2"/>
	<path class="st3" d="M170.9,136.6v-28.3c9.3-0.6,19.2-1,29.5-1c9,0,17.7,0.3,25.9,0.8v28.3c-8.2-0.5-16.9-0.8-25.9-0.8
		C190,135.5,180.1,135.9,170.9,136.6"/>
	<path class="st4" d="M150.2,164l64.6,278l-12.6,3.2l-65.8-283.5C142,164.4,147.7,164.2,150.2,164"/>
	<path class="st5" d="M112.7,154.2c0,10.3,39.3,18.6,87.7,18.6s87.7-8.4,87.7-18.6c0-10.3-39.3-18.7-87.7-18.7
		S112.7,143.9,112.7,154.2"/>
	<path class="st6" d="M151.5,154.2c0,7.4,28.2,13.4,63,13.4s63-6,63-13.4s-28.2-13.4-63-13.4S151.5,146.8,151.5,154.2"/>
	<path class="st7" d="M0.6,40.6l101.7,63.3l6.9-11.1L7.5,29.5L0.6,40.6"/>
	<path class="st7" d="M145.7,139.4l-7.6,1.8l-7.6,1.8l0.5-3.4l6.4-1.5l6.4-1.5L145.7,139.4"/>
	<path class="st8" d="M145,141.3l-12.7,2.9l-1.7-1.4l7.6-1.8l7.6-1.8L145,141.3"/>
	<path class="st7" d="M144.6,134.6l-7.6,1.8l-7.6,1.8l0.5-3.4l6.4-1.5l6.4-1.5L144.6,134.6"/>
	<path class="st8" d="M143.8,136.5l-6.4,1.5l-6.4,1.5l-1.6-1.3l7.6-1.8l7.6-1.8L143.8,136.5"/>
	<path class="st7" d="M143.5,129.9l-7.6,1.8l-7.6,1.8c0,0,0.1-0.9,0.2-1.7c0-0.2,0.1-0.4,0.1-0.6c0-0.1,0-0.1,0-0.1V131l0,0l0,0l0,0
		c0-0.1,0-0.1,0-0.2c0.1-0.3,0.1-0.4,0.1-0.4l6.3-1.6l6.3-1.6c0,0,0.1,0.2,0.3,0.5c0.1,0.1,0.1,0.2,0.2,0.3l0,0l0,0l0,0
		c0,0,0,0,0,0.1l0.1,0.1c0.1,0.2,0.2,0.3,0.4,0.5C143.1,129.2,143.5,129.9,143.5,129.9"/>
	<path class="st8" d="M142.7,131.8l-6.4,1.5l-6.4,1.5l-1.6-1.3l7.6-1.8l7.6-1.8L142.7,131.8"/>
	<path class="st7" d="M142.2,124.7l-7.4,2.3l-7.4,2.3c0,0,0,0,0-0.1v-0.1c0-0.1,0-0.1,0-0.2c0-0.3,0.1-0.6,0.1-1c0-0.1,0-0.2,0-0.3
		s0-0.2,0-0.3c0-0.2,0-0.3,0-0.5c0-0.1,0-0.3,0-0.3v-0.1l6.1-2.4l6.1-2.4c0,0,0,0.1,0.1,0.1c0.1,0.1,0.2,0.2,0.3,0.3
		s0.3,0.3,0.4,0.5c0.1,0.1,0.1,0.2,0.2,0.3s0.1,0.2,0.2,0.3c0.3,0.4,0.6,0.8,0.8,1.1c0.1,0.1,0.1,0.2,0.1,0.2s0.1,0.1,0.1,0.2
		C142.2,124.7,142.2,124.7,142.2,124.7"/>
	<path class="st8" d="M141.6,127l-6.3,1.6l-6.3,1.6c0,0,0,0-0.1,0c0,0-0.1-0.1-0.2-0.1c-0.2-0.1-0.3-0.2-0.5-0.3s-0.4-0.2-0.5-0.3
		c-0.2-0.1-0.2-0.1-0.2-0.1l7.4-2.3l7.4-2.3c0,0,0,0.1-0.1,0.3c-0.1,0.2-0.1,0.5-0.2,0.8c-0.1,0.3-0.2,0.6-0.2,0.8
		C141.8,126.8,141.6,126.9,141.6,127C141.6,126.9,141.6,127,141.6,127"/>
	<path class="st7" d="M140.2,119.2l-7.1,3.2l-7.1,3.2c0,0,0-0.2,0-0.4c0-0.3,0-0.6,0-1c0-0.1,0-0.2,0-0.3s0-0.2,0-0.3
		c0-0.1,0-0.2,0-0.2v-0.1v-0.1c0-0.3,0-0.4,0-0.4l5.7-3.2l5.7-3.2c0,0,0.2,0.2,0.5,0.4l0.1,0.1l0.1,0.1c0.1,0.1,0.2,0.2,0.2,0.2
		s0.2,0.2,0.3,0.3c0.1,0.1,0.2,0.2,0.3,0.3c0.4,0.4,0.7,0.7,1,1C140,119.1,140.2,119.2,140.2,119.2"/>
	<path class="st8" d="M139.8,121.5l-6.1,2.4l-6.1,2.4c0,0-0.1-0.1-0.3-0.1c-0.1,0-0.2-0.1-0.3-0.1s-0.1-0.1-0.2-0.1
		c-0.1,0-0.1-0.1-0.2-0.1c-0.2-0.1-0.4-0.2-0.6-0.2c-0.1,0-0.1-0.1-0.2-0.1s-0.1,0-0.1,0l7.1-3.2l7.1-3.2c0,0,0,0,0,0.1s0,0.2,0,0.3
		c0,0.2-0.1,0.5-0.1,0.8c0,0.1,0,0.1,0,0.2s0,0.1,0,0.2s0,0.3-0.1,0.4C139.8,121.4,139.8,121.5,139.8,121.5"/>
	<path class="st7" d="M137.4,114.1l-6.6,4.1l-6.6,4.1c0,0,0,0,0-0.1v-0.1V122v-0.1c0-0.1,0-0.3-0.1-0.4c0-0.1,0-0.2,0-0.3
		c0-0.1,0-0.2,0-0.3c0-0.2-0.1-0.3-0.1-0.5s-0.1-0.3-0.1-0.4s-0.1-0.2-0.1-0.3c0-0.1,0-0.1,0-0.1l5.2-3.9l5.2-4c0,0,0.1,0,0.1,0.1
		s0.2,0.2,0.4,0.3c0.1,0.1,0.3,0.2,0.5,0.4c0.2,0.1,0.4,0.3,0.6,0.4c0.1,0.1,0.2,0.2,0.3,0.2s0.2,0.2,0.3,0.2
		c0.2,0.2,0.4,0.3,0.5,0.4l0.1,0.1l0.1,0.1c0.1,0.1,0.1,0.1,0.1,0.1C137.3,114,137.4,114.1,137.4,114.1"/>
	<path class="st8" d="M137.3,116.4l-5.7,3.2l-5.7,3.2c0,0-0.1,0-0.3-0.1s-0.4-0.1-0.6-0.2c-0.1,0-0.2-0.1-0.3-0.1s-0.2-0.1-0.3-0.1
		c-0.2,0-0.3-0.1-0.3-0.1l6.6-4.1l6.6-4.1c0,0,0,0.2,0,0.4c0,0.1,0,0.2,0,0.4c0,0.1,0,0.3,0,0.4c0,0.3,0,0.6,0,0.8
		C137.3,116.3,137.3,116.4,137.3,116.4"/>
	<path class="st7" d="M133.9,109.3l-6,5l-6,5c0,0,0-0.2-0.1-0.4c0-0.1,0-0.1-0.1-0.2v-0.1v-0.1c-0.1-0.2-0.1-0.3-0.1-0.5v-0.1v-0.1
		c0-0.1-0.1-0.2-0.1-0.3c-0.1-0.2-0.1-0.3-0.1-0.4c-0.1-0.3-0.2-0.4-0.2-0.4l9.3-9.2c0,0,0.2,0.1,0.6,0.3c0.2,0.1,0.4,0.2,0.6,0.3
		c0.1,0.1,0.2,0.1,0.3,0.2c0.1,0,0.1,0.1,0.2,0.1s0.1,0.1,0.2,0.1c0.2,0.1,0.4,0.3,0.6,0.4c0.1,0,0.1,0.1,0.1,0.1l0.1,0.1
		c0.1,0.1,0.2,0.1,0.3,0.2C133.7,109.2,133.9,109.3,133.9,109.3"/>
	<path class="st8" d="M134.2,111.6l-5.2,4l-5.2,3.9c0,0-0.1,0-0.3-0.1c-0.1,0-0.2,0-0.3-0.1c-0.1,0-0.2,0-0.3-0.1
		c-0.2,0-0.4-0.1-0.6-0.1c-0.1,0-0.2,0-0.2,0c-0.1,0-0.1,0-0.1,0l6-5l6-5c0,0,0,0,0,0.1s0,0.2,0,0.3c0,0.2,0.1,0.5,0.1,0.8
		c0,0.1,0,0.3,0,0.4s0,0.3,0,0.4C134.2,111.5,134.2,111.6,134.2,111.6"/>
	<path class="st7" d="M129.9,105.1l-5.3,5.7l-5.3,5.7c0,0,0,0,0-0.1s-0.1-0.2-0.1-0.3c-0.1-0.1-0.1-0.3-0.2-0.4
		c0-0.1-0.1-0.2-0.1-0.2c0-0.1-0.1-0.2-0.1-0.2c-0.1-0.2-0.2-0.3-0.2-0.5s-0.1-0.3-0.2-0.4c-0.1-0.1-0.1-0.2-0.2-0.3
		C118,114,118,114,118,114l4-5.2l4-5.2c0,0,0.1,0,0.2,0.1c0.1,0,0.3,0.1,0.4,0.2c0.2,0.1,0.4,0.1,0.6,0.2s0.4,0.2,0.7,0.3
		c0.1,0.1,0.2,0.1,0.3,0.1c0.1,0.1,0.2,0.1,0.3,0.1c0.2,0.1,0.4,0.2,0.6,0.3c0.2,0.1,0.3,0.2,0.4,0.2
		C129.8,105,129.9,105.1,129.9,105.1"/>
	<path class="st8" d="M130.4,107.3l-9.3,9.2c0,0-0.1,0-0.3,0s-0.4,0-0.6,0c-0.2,0-0.4,0-0.6,0s-0.3,0-0.3,0l5.3-5.7l5.3-5.7
		c0,0,0,0.1,0.1,0.3c0.1,0.2,0.1,0.5,0.2,0.8c0.1,0.3,0.1,0.6,0.2,0.8C130.4,107.2,130.4,107.3,130.4,107.3"/>
	<path class="st7" d="M125.3,101.4l-4.4,6.4l-4.4,6.4l0,0v-0.1c0-0.1-0.1-0.2-0.2-0.3c-0.1-0.1-0.1-0.3-0.2-0.4s-0.2-0.3-0.3-0.4
		l-0.1-0.1c0,0,0,0,0-0.1l0,0l0,0c-0.1-0.1-0.1-0.2-0.2-0.3c-0.1-0.2-0.2-0.3-0.3-0.4c-0.2-0.3-0.3-0.4-0.3-0.4l3.5-5.6l3.5-5.6
		c0,0,0.2,0,0.5,0.1c0.2,0,0.3,0.1,0.5,0.1c0.1,0,0.2,0,0.3,0.1l0,0h0.1h0.1c0.1,0,0.1,0,0.2,0.1c0.2,0.1,0.5,0.1,0.7,0.2
		s0.4,0.1,0.6,0.2S125.2,101.4,125.3,101.4C125.2,101.3,125.2,101.4,125.3,101.4L125.3,101.4"/>
	<path class="st8" d="M126.2,103.6l-4,5.2l-4,5.2c0,0-0.5,0-0.9,0.1s-0.9,0.1-0.9,0.1l4.4-6.4l4.4-6.4c0,0,0.2,0.5,0.4,1.1
		C125.9,103,126.2,103.6,126.2,103.6"/>
	<path class="st7" d="M120.9,98.6l-4.1,6.6l-4.1,6.6l-2.1-2.7l3.5-5.6l3.5-5.6L120.9,98.6"/>
	<path class="st8" d="M121.6,100.5l-3.5,5.6l-3.5,5.6l-2.1,0.2l4.1-6.6l4.1-6.6L121.6,100.5"/>
	<path class="st7" d="M116.8,96l-4.1,6.6l-4.1,6.6l-2.1-2.7l3.5-5.6l3.5-5.6L116.8,96"/>
	<path class="st8" d="M117.5,97.9l-3.5,5.6l-3.5,5.6l-2.1,0.2l4.1-6.6l4.1-6.6L117.5,97.9"/>
	<path class="st7" d="M112.7,93.4l-4.1,6.6l-4.1,6.6l-2.2-2.8l3.4-5.5l3.4-5.5L112.7,93.4"/>
	<path class="st8" d="M113.4,95.4l-3.5,5.6l-3.5,5.6l-2.1,0.2l4.1-6.6l4.2-6.8L113.4,95.4"/>
	<path class="st7" d="M145,141.3l5.3,22.7c-2.5,0.2-8.2,0.3-13.9-2.3l-4.1-17.4L145,141.3"/>
	<path class="st9" d="M118.4,114.3c0.1,0.1,0.1,0.3,0.2,0.4s0.1,0.3,0.2,0.5c0,0.1,0.1,0.2,0.1,0.2c0,0.1,0.1,0.2,0.1,0.2
		c0.1,0.2,0.1,0.3,0.2,0.4c0.1,0.1,0.1,0.2,0.1,0.3c0,0.1,0,0.1,0,0.1s0.1,0,0.3,0s0.4,0,0.6,0s0.4,0,0.6,0c0.1,0,0.1,0,0.1,0
		c-8.3,2.8-13,6.1-13,9.7c0,4.6,8.2,8.9,21.7,12.2c4.5,1.1,9.6,2.1,15.2,2.9l0,0l0.6,2.4c-5.3-0.8-10.2-1.6-14.7-2.5
		c-18.3-3.8-29.6-9.1-29.6-15C101.3,121.8,107.6,117.7,118.4,114.3"/>
	<path class="st10" d="M200.7,195.3c-1.1,0-1.9-0.9-1.9-1.9s0.9-1.9,1.9-1.9h0.1v3.8C200.8,195.3,200.8,195.3,200.7,195.3"/>
	<path class="st10" d="M168.4,219.6c-2.1,0-4-0.6-5.7-1.6l-3.4-14.7c1.9-3,5.2-5,9.1-5c5.9,0,10.7,4.8,10.7,10.7
		C179.1,214.8,174.3,219.6,168.4,219.6"/>
	<path class="st11" d="M162.7,218c-3-1.9-5-5.2-5-9.1c0-2.1,0.6-4,1.6-5.6L162.7,218"/>
	<path class="st12" d="M195.4,224.9c-0.7,0-1.3-0.2-1.8-0.5v-5.9c0.5-0.3,1.1-0.5,1.8-0.5c1.9,0,3.5,1.6,3.5,3.5
		C198.8,223.4,197.3,224.9,195.4,224.9"/>
	<path class="st10" d="M183,195.2c-1-0.3-1.8-1.3-1.8-2.4c0-1.1,0.8-2.1,1.8-2.4V195.2"/>
	<path class="st10" d="M140.8,199.7c-5,0-9.1-4.1-9.1-9.1s4.1-9.1,9.1-9.1h0.1l4,17.3C143.7,199.4,142.3,199.7,140.8,199.7"/>
	<path class="st11" d="M144.9,198.8l-4-17.3c5,0.1,9,4.1,9,9.1C149.9,194.2,147.9,197.3,144.9,198.8"/>
	<path class="st10" d="M156.8,249.9c-1.1-1-1.7-2.4-1.7-4c0-0.7,0.1-1.3,0.3-1.9L156.8,249.9"/>
	<path class="st10" d="M160.6,251.4c-1.5,0-2.8-0.6-3.8-1.5l-1.4-5.9c0.8-2.1,2.8-3.6,5.2-3.6c3.1,0,5.5,2.5,5.5,5.5
		C166.1,249,163.7,251.4,160.6,251.4"/>
	<path class="st12" d="M179,280.8c-0.6,0-1.2-0.1-1.8-0.2l-2.9-12.3c1.2-1.1,2.9-1.7,4.6-1.7c1.4,0,2.8,0.4,3.9,1.2v11.9
		C181.8,280.4,180.5,280.8,179,280.8"/>
	<path class="st11" d="M177.3,280.6c-3.1-0.8-5.3-3.6-5.3-6.9c0-2.1,1-4.1,2.5-5.4L177.3,280.6"/>
	<path class="st10" d="M157.3,302c-1.8,0-3.3-1.5-3.3-3.3s1.5-3.3,3.3-3.3s3.3,1.5,3.3,3.3S159.1,302,157.3,302"/>
	<path class="st10" d="M164.5,319.1c-2.2,0-3.9-1.8-3.9-3.9c0-2.1,1.8-3.9,3.9-3.9s3.9,1.8,3.9,3.9
		C168.4,317.3,166.7,319.1,164.5,319.1"/>
	<path class="st10" d="M183,305l-0.9-3.9c0.2-0.4,0.6-0.7,0.9-0.9V305"/>
	<path class="st12" d="M183,306.2c-0.9-0.7-1.5-1.8-1.5-3c0-0.8,0.2-1.5,0.6-2.1l0.9,3.9V306.2"/>
	<path class="st11" d="M172.7,294.1c-1.1,0-2-0.9-2-2c0-1.1,0.9-2,2-2s2,0.9,2,2C174.7,293.2,173.8,294.1,172.7,294.1"/>
	<path class="st10" d="M158.4,276c-1.2,0-2.2-1-2.2-2.2s1-2.2,2.2-2.2s2.2,1,2.2,2.2S159.6,276,158.4,276"/>
	<path class="st12" d="M183,336.5c-0.6-0.8-1-1.9-1-3c0-1.1,0.4-2.1,1-3V336.5"/>
	<path class="st10" d="M168.4,334.4c-1.3,0-2.3-1-2.3-2.3s1-2.3,2.3-2.3s2.3,1,2.3,2.3S169.7,334.4,168.4,334.4"/>
	<path class="st10" d="M174.2,367.2c-4,0-7.2-3.2-7.2-7.2s3.2-7.2,7.2-7.2s7.2,3.2,7.2,7.2C181.4,363.9,178.2,367.2,174.2,367.2"/>
	<path class="st10" d="M170.9,389.2c-2.7,0-4.9-2.2-4.9-4.9c0-2.7,2.2-4.9,4.9-4.9s4.9,2.2,4.9,4.9
		C175.8,387,173.6,389.2,170.9,389.2"/>
	<path class="st10" d="M155.3,375.2c-1.7,0-3-1.4-3-3c0-1.7,1.4-3,3-3s3,1.4,3,3C158.4,373.9,157,375.2,155.3,375.2"/>
	<path class="st10" d="M152.1,353.8c-1.8,0-3.3-1.5-3.3-3.3s1.5-3.3,3.3-3.3s3.3,1.5,3.3,3.3C155.3,352.4,153.9,353.8,152.1,353.8"
		/>
	<path class="st11" d="M200,403.8c-1.6,0-3-1.3-3-3c0-1.6,1.3-3,3-3c0.3,0,0.6,0,0.9,0.1v5.7C200.6,403.8,200.3,403.8,200,403.8"/>
	<path class="st10" d="M180.4,409.8c-1.9,0-3.4-1.5-3.4-3.4c0-1.9,1.5-3.4,3.4-3.4c1,0,1.9,0.4,2.5,1.1v4.6
		C182.3,409.3,181.4,409.8,180.4,409.8"/>
	<path class="st10" d="M162.6,405.1c-2.4,0-4.4-2-4.4-4.4c0-2.4,2-4.4,4.4-4.4s4.4,2,4.4,4.4C167,403.1,165.1,405.1,162.6,405.1"/>
	<path class="st10" d="M163.8,424.6c-1.8,0-3.2-1.4-3.2-3.2c0-1.8,1.4-3.2,3.2-3.2s3.2,1.4,3.2,3.2
		C167,423.2,165.6,424.6,163.8,424.6"/>
	<path class="st10" d="M193.8,421.4c-0.1,0-0.2,0-0.3,0v-6.3c0.1,0,0.2,0,0.3,0c0.5,0,1,0.1,1.4,0.3l1.1,4.7
		C195.7,420.9,194.8,421.4,193.8,421.4"/>
	<path class="st12" d="M196.3,420.1l-1.1-4.7c1,0.5,1.7,1.6,1.7,2.8C197,419,196.7,419.6,196.3,420.1"/>
	<path class="st11" d="M193.5,394.4V388c1.1,0.7,1.8,1.9,1.8,3.2C195.3,392.5,194.6,393.8,193.5,394.4"/>
	<path class="st10" d="M159.7,183.8c-1.1,0-1.9-0.9-1.9-1.9s0.9-1.9,1.9-1.9s1.9,0.9,1.9,1.9S160.8,183.8,159.7,183.8"/>
	<path class="st10" d="M130.8,176.7c-1.4,0-2.6-1.2-2.6-2.6c0-1.4,1.2-2.6,2.6-2.6s2.6,1.2,2.6,2.6S132.2,176.7,130.8,176.7"/>
	<path class="st10" d="M134.4,231.5c-4.2,0-7.6-3.4-7.6-7.6s3.4-7.6,7.6-7.6s7.6,3.4,7.6,7.6S138.6,231.5,134.4,231.5"/>
	<path class="st10" d="M269.1,191.9c-4.2,0-7.6-3.4-7.6-7.6c0-4.2,3.4-7.6,7.6-7.6c0.4,0,0.7,0,1,0.1l-0.8,15.2
		C269.2,191.9,269.2,191.9,269.1,191.9"/>
	<path class="st13" d="M267.5,225.9c-2.6,0-4.8-2.1-4.8-4.8c0-2.6,2.1-4.8,4.8-4.8c0.2,0,0.3,0,0.5,0L267.5,225.9L267.5,225.9"/>
	<path class="st13" d="M264.8,263.4c-1.5,0-2.6-1.2-2.6-2.6c0-1.4,1.2-2.6,2.6-2.6c0.3,0,0.6,0.1,0.9,0.2l-0.3,5
		C265.3,263.3,265.1,263.4,264.8,263.4"/>
	<path class="st12" d="M255.3,277.4c-1.9,0-3.5-1.6-3.5-3.5c0-1.9,1.6-3.5,3.5-3.5s3.5,1.6,3.5,3.5
		C258.8,275.8,257.2,277.4,255.3,277.4"/>
	<path class="st12" d="M255.7,257.3c-1,0-1.8-0.8-1.8-1.8c0-1,0.8-1.8,1.8-1.8s1.8,0.8,1.8,1.8C257.5,256.5,256.7,257.3,255.7,257.3
		"/>
	<path class="st12" d="M247.9,336.5c-2.2,0-4-1.8-4-4s1.8-4,4-4s4,1.8,4,4S250.1,336.5,247.9,336.5"/>
	<path class="st12" d="M251.6,366.8c-1.2,0-2.2-1-2.2-2.2s1-2.2,2.2-2.2s2.2,1,2.2,2.2S252.8,366.8,251.6,366.8"/>
	<path class="st12" d="M252.1,397.9c-3.7,0-6.7-3-6.7-6.7s3-6.7,6.7-6.7c3.3,0,6.1,2.4,6.6,5.5l-0.2,3.1
		C257.7,395.8,255.1,397.9,252.1,397.9"/>
	<path class="st12" d="M248.2,414.4c-1.9,0-3.4-1.5-3.4-3.4c0-1.9,1.5-3.4,3.4-3.4s3.4,1.5,3.4,3.4
		C251.6,412.9,250.1,414.4,248.2,414.4"/>
	<path class="st14" d="M183,461.3c-2.6-0.1-5.1-0.3-7.6-0.4c-20.5-1.4-37.1-4.5-45.7-8.5c6.2,1,13,1.7,20.4,2.3
		c9,1.8,20.3,3.2,32.8,3.8L183,461.3"/>
	<path class="st15" d="M183,458.4c-12.5-0.6-23.8-2-32.8-3.8c0.7,0.1,1.5,0.1,2.2,0.2c7.9,0.5,16.3,0.8,25.1,0.8c0.3,0,0.6,0,0.9,0
		c1.5,0.1,3.1,0.2,4.6,0.3V458.4"/>
	<path class="st12" d="M294.4,126.2h-1.6c0-0.8-0.2-1.5-0.6-2.2c-2-3.5-8.7-6.7-18.7-9.3l0,0l0.1-2.7c9.5,2.2,16.8,4.8,21.2,7.7
		L294.4,126.2"/>
	<path class="st14" d="M218.5,461.2v-2.8c31.5-1.7,54.7-7.8,54.7-15L288,154.6c0-0.1,0-0.3,0-0.4c0-4-6-7.8-16.2-10.8l0.1-2.6
		l0.1-2.7c10.7-2.7,17.9-6,20-9.7c0.4-0.7,0.6-1.5,0.6-2.2h1.6l-0.4,7L276,446.1c0,0.1,0,0.2,0,0.3l0,0l0,0c-0.1,0.5-0.2,1-0.5,1.5
		c-2,3.5-9.8,6.7-21.3,9.1c-9,1.9-20.4,3.3-33.2,4.1C220.3,461.1,219.4,461.2,218.5,461.2"/>
	<path class="st15" d="M218.5,458.4v-2.5c30.3-1.7,52.6-7.6,52.6-14.5c0-3.5-5.5-6.6-14.6-9.1l2.1-39.2c0.2-0.6,0.3-1.2,0.3-1.9
		c0-0.4,0-0.8-0.1-1.2l6.8-126.7c1.1-0.3,2-1.3,2-2.6c0-1.1-0.7-2.1-1.7-2.5l1.7-32.3c2.6,0,4.8-2.1,4.8-4.8c0-2.5-1.9-4.5-4.3-4.8
		l1.3-24.4c4.1-0.1,7.4-3.5,7.4-7.6c0-3.9-2.9-7.1-6.6-7.6l0.6-11.4c10.5-3,16.9-6.7,17.3-10.7l-14.9,288.8
		C273.2,450.6,250,456.7,218.5,458.4"/>
	<path class="st15" d="M218.5,455.9v-2.6c5.5-0.7,10.6-1.5,15.1-2.5c11.8-2.5,19.8-5.7,21.9-9.3c0.3-0.5,0.5-1,0.5-1.5l0,0l0,0
		c0-0.1,0-0.2,0-0.4l0.4-7.4c9.2,2.5,14.6,5.7,14.6,9.1C271.1,448.3,248.8,454.2,218.5,455.9"/>
	<path class="st14" d="M272.2,138.1l1.3-23.4c10,2.7,16.7,5.8,18.7,9.3c0.4,0.7,0.6,1.5,0.6,2.2c0,0.7-0.2,1.5-0.6,2.2
		C290.1,132.1,282.9,135.4,272.2,138.1"/>
	<path class="st15" d="M270.7,165.3l0.3-5.2c4.2-1.8,6.6-3.8,6.6-6c0-2-2.1-4-6-5.7l0.3-5.1c10.2,3.1,16.2,6.8,16.2,10.8
		c0,0.1,0,0.3,0,0.4C287.6,158.6,281.3,162.3,270.7,165.3"/>
	<path class="st6" d="M271,160.2l0.6-11.7c3.8,1.7,6,3.7,6,5.7C277.6,156.3,275.2,158.4,271,160.2"/>
	<path class="st13" d="M269.3,191.9l0.8-15.2c3.7,0.5,6.6,3.7,6.6,7.6C276.7,188.4,273.4,191.8,269.3,191.9"/>
	<path class="st12" d="M267.5,225.9l0.5-9.6c2.4,0.3,4.3,2.3,4.3,4.8C272.3,223.8,270.1,225.9,267.5,225.9"/>
	<path class="st16" d="M265.5,263.3l0.3-5c1,0.4,1.7,1.4,1.7,2.5C267.5,261.9,266.6,263,265.5,263.3"/>
	<path class="st12" d="M258.5,393l0.2-3.1c0.1,0.4,0.1,0.8,0.1,1.2C258.8,391.8,258.7,392.4,258.5,393"/>
	<path class="st15" d="M218.5,426.8c-2.4-0.1-4.9-0.2-7.4-0.3L200.8,382V195.3c1-0.1,1.8-0.9,1.8-1.9s-0.8-1.9-1.8-1.9v-18.6
		c6.1,0,12-0.1,17.7-0.4V426.8"/>
	<path class="st15" d="M200.8,454.9v-15.3l1.3,5.6l12.6-3.2l-3.6-15.5c2.5,0.1,4.9,0.2,7.4,0.3v26.4
		C213,453.9,207.1,454.5,200.8,454.9"/>
	<path class="st11" d="M202.2,445.2l-1.3-5.6v-35.9c1.2-0.4,2.1-1.5,2.1-2.9c0-1.4-0.9-2.5-2.1-2.9v-16l10.3,44.5l3.6,15.5
		L202.2,445.2"/>
	<path class="st5" d="M200.8,172.9v-5.6c4.4,0.2,9,0.3,13.7,0.3c1.3,0,2.6,0,4,0v4.9C212.8,172.7,206.9,172.8,200.8,172.9"/>
	<path class="st15" d="M214.5,167.6c-4.7,0-9.3-0.1-13.7-0.3v-22.2c6.1,0,11.9-0.1,17.7-0.4v22.9
		C217.2,167.6,215.9,167.6,214.5,167.6"/>
	<path class="st12" d="M200.8,195.3v-3.8c1,0.1,1.8,0.9,1.8,1.9S201.8,195.3,200.8,195.3"/>
	<path class="st17" d="M200.8,403.7V398c1.2,0.4,2.1,1.5,2.1,2.9C202.9,402.2,202,403.3,200.8,403.7"/>
	<path class="st15" d="M200.8,456.4v-1.5c6.3-0.4,12.2-1,17.7-1.6v2.6C212.9,456.2,206.9,456.4,200.8,456.4"/>
	<path class="st18" d="M183,426.8v-18.1c0.6-0.6,0.9-1.4,0.9-2.3c0-0.9-0.3-1.7-0.9-2.3v-41.5l1.5,6.5c-0.4,0.6-0.6,1.4-0.6,2.2
		c0,1.5,0.8,2.7,1.9,3.4l3.2,13.9c-0.7,0.7-1.1,1.6-1.1,2.7c0,1.7,1.1,3.1,2.6,3.6l3.1,13.4v6.9c-1.6,0.1-2.9,1.5-2.9,3.1
		c0,1.6,1.3,3,2.9,3.1v5C189.9,426.5,186.4,426.6,183,426.8 M193.5,350.6l-3.2-13.6c0.9-0.9,1.5-2.2,1.5-3.6c0-2.2-1.4-4.1-3.4-4.7
		l-5.2-22.4c0.5,0.3,1.2,0.5,1.8,0.5c2,0,3.7-1.7,3.7-3.7s-1.7-3.7-3.7-3.7c-0.8,0-1.6,0.3-2.1,0.7v-20.5c1.9-1.3,3.2-3.5,3.2-5.9
		c0-2.5-1.3-4.7-3.2-5.9v-72.5c0.2,0.1,0.5,0.1,0.7,0.1c1.4,0,2.5-1.1,2.5-2.5s-1.1-2.5-2.5-2.5c-0.2,0-0.5,0-0.7,0.1v-17.9
		c3.5,0.1,7,0.3,10.6,0.3v45.7c-1,0.6-1.7,1.7-1.7,2.9s0.7,2.4,1.7,2.9L193.5,350.6"/>
	<path class="st15" d="M183,455.6v-28.8c3.4-0.2,7-0.3,10.6-0.4v28.9C190.1,455.4,186.5,455.5,183,455.6"/>
	<path class="st11" d="M193.5,408.2l-3.1-13.4c0.4,0.1,0.8,0.2,1.2,0.2c0.7,0,1.4-0.2,1.9-0.5L193.5,408.2 M189,388.5l-3.2-13.9
		c0.6,0.4,1.3,0.6,2.1,0.6c2.2,0,4-1.8,4-4s-1.8-4-4-4c-1.4,0-2.7,0.8-3.4,1.9l-1.5-6.5v-26.1c0.9,1.2,2.4,2,4,2
		c1.4,0,2.6-0.5,3.5-1.4l3.2,13.6v37.4c-0.6-0.3-1.2-0.5-1.9-0.5C190.6,387.5,189.7,387.9,189,388.5 M183,330.5v-24.3
		c0.1,0.1,0.2,0.1,0.3,0.2l5.2,22.4c-0.5-0.2-1-0.2-1.5-0.2C185.3,328.5,183.9,329.3,183,330.5"/>
	<path class="st19" d="M193.5,172.8c-3.6-0.1-7.1-0.2-10.6-0.3v-6.7c3.4,0.4,6.9,0.8,10.6,1V172.8"/>
	<path class="st15" d="M193.5,166.8c-3.7-0.3-7.3-0.6-10.6-1v-21.1c3.5,0.1,7,0.2,10.6,0.3V166.8"/>
	<path class="st13" d="M193.5,224.4c-1-0.6-1.7-1.7-1.7-2.9s0.7-2.3,1.7-2.9V224.4"/>
	<path class="st13" d="M183.7,195.3c-0.2,0-0.5,0-0.7-0.1v-4.8c0.2-0.1,0.5-0.1,0.7-0.1c1.4,0,2.5,1.1,2.5,2.5
		C186.2,194.2,185,195.3,183.7,195.3"/>
	<path class="st12" d="M183,279.6v-11.9c1.9,1.3,3.2,3.5,3.2,5.9C186.2,276.2,184.9,278.4,183,279.6"/>
	<path class="st12" d="M185.1,306.9c-0.7,0-1.3-0.2-1.8-0.5L183,305v-4.8c0.6-0.4,1.4-0.7,2.1-0.7c2,0,3.7,1.7,3.7,3.7
		S187.1,306.9,185.1,306.9"/>
	<path class="st17" d="M183.3,306.4c-0.1-0.1-0.2-0.1-0.3-0.2V305L183.3,306.4"/>
	<path class="st12" d="M190.4,337l-1.9-8.3c2,0.6,3.4,2.5,3.4,4.7C191.9,334.9,191.3,336.1,190.4,337"/>
	<path class="st12" d="M186.9,338.4c-1.6,0-3.1-0.8-4-2v-6c0.9-1.2,2.4-2,4-2c0.5,0,1.1,0.1,1.5,0.2l1.9,8.3
		C189.5,337.9,188.3,338.4,186.9,338.4"/>
	<path class="st12" d="M185.8,374.6c-1.1-0.7-1.9-2-1.9-3.4c0-0.8,0.2-1.5,0.6-2.2L185.8,374.6"/>
	<path class="st12" d="M187.9,375.2c-0.8,0-1.5-0.2-2.1-0.6l-1.3-5.6c0.7-1.1,2-1.9,3.4-1.9c2.2,0,4,1.8,4,4
		C191.9,373.4,190.1,375.2,187.9,375.2"/>
	<path class="st12" d="M183,408.7v-4.6c0.6,0.6,0.9,1.4,0.9,2.3C183.8,407.2,183.5,408,183,408.7"/>
	<path class="st12" d="M193.5,421.4c-1.6-0.1-2.9-1.5-2.9-3.1c0-1.6,1.3-3,2.9-3.1V421.4"/>
	<path class="st13" d="M190.4,394.8c-1.5-0.5-2.6-1.9-2.6-3.6c0-1,0.4-2,1.1-2.7L190.4,394.8"/>
	<path class="st17" d="M191.6,395c-0.4,0-0.8-0.1-1.2-0.2l-1.4-6.2c0.7-0.7,1.6-1.1,2.6-1.1c0.7,0,1.4,0.2,1.9,0.5v6.4
		C193,394.8,192.3,395,191.6,395"/>
	<path class="st9" d="M134.1,110.5c0,0.1,0,0.3,0,0.4s0,0.3,0,0.4c0,0.2,0,0.4,0,0.4s0.1,0,0.1,0.1s0.2,0.2,0.4,0.3
		c0.1,0.1,0.3,0.2,0.5,0.4c0.1,0.1,0.3,0.2,0.5,0.4c16.7-3.3,39.5-5.4,64.7-5.4c29.7,0,56.1,2.9,73,7.3c12.1,3.2,19.4,7.2,19.4,11.6
		c0,4.5-7.7,8.6-20.6,11.9c-13.3,3.4-32.1,5.8-53.7,6.6c-5.7,0.2-11.6,0.4-17.7,0.4c-0.1,0-0.3,0-0.4,0c-2.3,0-4.6,0-6.9-0.1
		c-3.6-0.1-7.1-0.1-10.6-0.3c-14.1-0.6-27-1.8-38-3.4l0,0l0.6,2.4c11.1,1.6,23.8,2.7,37.4,3.2c3.5,0.1,7,0.2,10.6,0.3
		c2.3,0,4.6,0.1,6.9,0.1c0.1,0,0.3,0,0.4,0c6,0,11.9-0.1,17.7-0.4c20.9-0.8,39.4-3,53.5-6.2c9.7-2.1,17.2-4.7,21.9-7.6
		c3.6-2.2,5.6-4.5,5.6-7c0-2.3-1.7-4.4-4.8-6.5c-4.4-2.9-11.7-5.5-21.2-7.7c-18.1-4.2-44.2-6.9-73.2-6.9
		C174.9,105.1,151.6,107.2,134.1,110.5"/>
</g>
</svg>
