<?xml version="1.0" encoding="utf-8"?>
<!-- Generator: Adobe Illustrator 25.3.1, SVG Export Plug-In . SVG Version: 6.00 Build 0)  -->
<svg version="1.1" id="Layer_1" xmlns="http://www.w3.org/2000/svg" xmlns:xlink="http://www.w3.org/1999/xlink" x="0px" y="0px"
	 viewBox="0 0 400 500" style="enable-background:new 0 0 400 500;" xml:space="preserve">
<style type="text/css">
	.st0{fill:#AEDFE1;}
	.st1{fill:#2E180E;}
	.st2{fill:#4F2510;}
	.st3{fill:#D2EDEF;}
	.st4{fill:#A11E21;}
	.st5{fill:#6B3A19;}
	.st6{fill:#7D4220;}
	.st7{fill:#E02926;}
	.st8{fill:#A32022;}
	.st9{fill:#D3EDED;}
	.st10{fill:#442D21;}
	.st11{fill:#AB3434;}
	.st12{fill:#C5E7EA;}
	.st13{fill:#705E55;}
	.st14{fill:#FFFFFF;}
	.st15{fill:#876657;}
	.st16{fill:#997661;}
	.st17{fill:#A57D65;}
	.st18{fill:#7E6E66;}
	.st19{fill:#633A24;}
	.st20{fill:#7A4E31;}
	.st21{fill:#8A5637;}
	.st22{fill:#574338;}
	.st23{fill:#B44949;}
	.st24{fill:#937768;}
</style>
<g>
	<path class="st0" d="M100.65,126.81l18.99,323.93l0,0c0,0.13,0.01,0.26,0.02,0.39v0.01c0.82,7.05,23.41,12.99,54.55,15.14
		c2.65,0.18,5.37,0.34,8.13,0.46c3.46,0.16,6.99,0.27,10.6,0.33c2.26,0.04,4.54,0.06,6.85,0.06c0.15,0,0.29,0,0.44,0
		c6.07-0.01,11.99-0.15,17.67-0.42c1.48-0.07,2.95-0.15,4.41-0.24c13.38-0.8,25.31-2.29,34.8-4.27c12.06-2.52,20.17-5.84,22.29-9.53
		c0.29-0.5,0.47-1.02,0.53-1.53v-0.04c0.01-0.12,0.02-0.24,0.02-0.36l18.96-323.39l0.03-0.54L100.65,126.81"/>
	<path class="st1" d="M287.48,154.8l-14.85,289.22c0,8.55-32.61,15.48-72.83,15.48s-72.83-6.93-72.83-15.48L112.11,154.8H287.48"/>
	<path class="st2" d="M177.72,456.22c-28.23-1.97-48.61-7.62-48.61-14.28c0-7.02,22.63-12.91,53.23-14.57v28.81
		C180.82,456.2,179.28,456.22,177.72,456.22 M192.95,455.88v-28.9c1.39-0.03,2.8-0.05,4.21-0.06l3.08,13.25v15.32
		c-0.44,0.03-0.88,0.06-1.32,0.08C196.96,455.69,194.97,455.8,192.95,455.88 M217.91,453.86v-26.44c15.3,0.86,28.56,2.78,37.94,5.37
		l-0.39,7.36c0,0.12-0.01,0.24-0.02,0.35v0.04l0,0c-0.06,0.51-0.23,1.01-0.51,1.5c-2.08,3.62-10.03,6.87-21.86,9.34
		C228.53,452.33,223.44,453.16,217.91,453.86"/>
	<path class="st0" d="M107.41,126.81c0,8.32,26.33,15.39,62.9,17.9c9.26,0.64,19.17,0.98,29.48,0.98c9.01,0,17.72-0.26,25.95-0.76
		c15.42-0.92,29.17-2.64,40.11-4.93c13.9-2.91,23.25-6.73,25.69-10.98c0.42-0.73,0.63-1.47,0.63-2.22s-0.22-1.49-0.63-2.22
		c-2.44-4.25-11.79-8.07-25.69-10.98c-10.93-2.28-24.69-4-40.11-4.92c-8.23-0.49-16.94-0.76-25.95-0.76
		c-10.31,0-20.23,0.34-29.48,0.98C133.74,111.42,107.41,118.48,107.41,126.81"/>
	<path class="st3" d="M170.31,137.23V108.9c9.26-0.64,19.17-0.98,29.48-0.98c9.01,0,17.72,0.26,25.95,0.76v28.3
		c-8.2-0.54-16.92-0.83-25.95-0.83C189.45,136.15,179.53,136.53,170.31,137.23"/>
	<path class="st4" d="M149.62,164.63l64.55,278l-12.62,3.18l-65.82-283.48C141.44,164.96,147.14,164.85,149.62,164.63"/>
	<path class="st5" d="M112.11,154.8c0,10.3,39.26,18.65,87.68,18.65s87.68-8.35,87.68-18.65c0-10.3-39.26-18.66-87.68-18.66
		S112.11,144.5,112.11,154.8"/>
	<path class="st6" d="M150.91,154.8c0,7.41,28.22,13.41,63.04,13.41s63.04-6,63.04-13.41s-28.22-13.41-63.04-13.41
		S150.91,147.39,150.91,154.8"/>
	<path class="st7" d="M0,41.17l101.66,63.26l6.88-11.05L6.88,30.12L0,41.17"/>
	<path class="st7" d="M145.13,139.97l-7.57,1.76l-7.57,1.76l0.48-3.39l6.37-1.48l6.37-1.48L145.13,139.97"/>
	<path class="st8" d="M144.35,141.94l-12.68,2.94l-1.69-1.4l7.57-1.76l7.57-1.76L144.35,141.94"/>
	<path class="st7" d="M144.04,135.25l-7.57,1.76l-7.57,1.76l0.48-3.39l6.37-1.48l6.37-1.48L144.04,135.25"/>
	<path class="st8" d="M143.2,137.14l-6.37,1.48l-6.37,1.48l-1.57-1.32l7.57-1.76l7.57-1.76L143.2,137.14"/>
	<path class="st7" d="M142.94,130.54l-7.57,1.76l-7.57,1.76c0,0,0.12-0.85,0.24-1.7c0.03-0.21,0.06-0.42,0.09-0.62
		c0.01-0.05,0.01-0.1,0.02-0.15c0-0.02,0.01-0.05,0.01-0.07c0-0.01,0-0.02,0-0.04v-0.02v-0.01c0.01-0.07,0.03-0.15,0.04-0.21
		c0.05-0.26,0.09-0.44,0.09-0.44l6.34-1.61l6.34-1.61c0,0,0.13,0.21,0.33,0.53c0.05,0.08,0.1,0.17,0.16,0.26l0.01,0.02l0.01,0.02
		l0.02,0.03c0.01,0.02,0.03,0.04,0.04,0.06c0.03,0.04,0.05,0.08,0.08,0.12c0.11,0.17,0.23,0.34,0.35,0.52
		C142.46,129.83,142.94,130.54,142.94,130.54"/>
	<path class="st8" d="M142.11,132.42l-6.37,1.48l-6.37,1.48l-1.57-1.32l7.57-1.76l7.57-1.76L142.11,132.42"/>
	<path class="st7" d="M141.63,125.35l-7.44,2.25l-7.44,2.26c0,0,0.01-0.04,0.02-0.12c0.01-0.04,0.01-0.09,0.02-0.14
		c0.01-0.05,0.02-0.11,0.03-0.18c0.04-0.26,0.09-0.61,0.12-0.96c0.01-0.09,0.02-0.18,0.03-0.26c0.01-0.09,0.02-0.17,0.03-0.26
		c0.01-0.17,0.03-0.32,0.04-0.46c0.01-0.13,0.02-0.25,0.02-0.33s0.01-0.12,0.01-0.12l6.07-2.44l6.07-2.44c0,0,0.04,0.05,0.11,0.13
		c0.07,0.08,0.17,0.2,0.29,0.35s0.25,0.32,0.4,0.5c0.07,0.09,0.15,0.19,0.22,0.29s0.15,0.2,0.23,0.3c0.31,0.4,0.6,0.81,0.82,1.12
		c0.06,0.08,0.11,0.15,0.15,0.21s0.08,0.12,0.11,0.16C141.6,125.29,141.63,125.35,141.63,125.35"/>
	<path class="st8" d="M140.97,127.57l-6.34,1.61l-6.34,1.61c0,0-0.02-0.02-0.07-0.04c-0.04-0.03-0.1-0.07-0.17-0.11
		c-0.15-0.09-0.34-0.21-0.53-0.33s-0.39-0.23-0.53-0.32c-0.15-0.08-0.24-0.14-0.24-0.14l7.44-2.26l7.44-2.25
		c0,0-0.04,0.14-0.09,0.35c-0.06,0.21-0.13,0.49-0.22,0.77c-0.08,0.28-0.17,0.56-0.23,0.76c-0.03,0.1-0.06,0.19-0.08,0.25
		C140.99,127.54,140.97,127.57,140.97,127.57"/>
	<path class="st7" d="M139.56,119.85l-7.07,3.23l-7.07,3.22c0,0,0-0.17,0.01-0.44c0.01-0.27,0-0.62,0-0.97
		c0-0.09-0.01-0.18-0.01-0.27s-0.01-0.17-0.01-0.26c0-0.09-0.01-0.17-0.01-0.24c0-0.04,0-0.08,0-0.11c0-0.04-0.01-0.07-0.01-0.1
		c-0.02-0.27-0.03-0.45-0.03-0.45l5.69-3.22l5.69-3.23c0,0,0.18,0.17,0.46,0.42c0.03,0.03,0.07,0.06,0.11,0.1s0.07,0.07,0.11,0.11
		c0.08,0.07,0.16,0.15,0.24,0.23s0.17,0.17,0.26,0.25c0.09,0.09,0.18,0.17,0.27,0.26c0.35,0.36,0.71,0.72,0.96,1
		C139.39,119.66,139.56,119.85,139.56,119.85"/>
	<path class="st8" d="M139.2,122.15l-6.07,2.44l-6.07,2.44c0,0-0.1-0.05-0.26-0.12c-0.08-0.04-0.17-0.08-0.26-0.12
		c-0.05-0.02-0.1-0.05-0.15-0.07s-0.1-0.05-0.16-0.07c-0.21-0.09-0.41-0.18-0.57-0.24c-0.08-0.03-0.14-0.06-0.19-0.08
		c-0.05-0.02-0.07-0.03-0.07-0.03l7.07-3.22l7.07-3.23c0,0,0,0.04-0.01,0.1s-0.02,0.15-0.04,0.26c-0.03,0.22-0.07,0.51-0.12,0.79
		c-0.01,0.07-0.02,0.14-0.03,0.21s-0.02,0.14-0.04,0.21c-0.02,0.13-0.04,0.26-0.06,0.37C139.23,122.01,139.2,122.15,139.2,122.15"/>
	<path class="st7" d="M136.77,114.68l-6.58,4.14l-6.58,4.14c0,0,0-0.04-0.01-0.12c0-0.04-0.01-0.08-0.01-0.14
		c0-0.03-0.01-0.06-0.01-0.09s-0.01-0.06-0.01-0.09c-0.02-0.13-0.04-0.28-0.06-0.45c-0.01-0.08-0.02-0.17-0.04-0.25
		c-0.01-0.09-0.03-0.17-0.04-0.26c-0.03-0.18-0.06-0.35-0.08-0.52c-0.03-0.16-0.06-0.32-0.09-0.45s-0.05-0.24-0.06-0.32
		c-0.02-0.08-0.03-0.12-0.03-0.12l5.21-3.95l5.21-3.96c0,0,0.05,0.04,0.14,0.1s0.21,0.15,0.37,0.26c0.15,0.11,0.33,0.24,0.52,0.37
		c0.19,0.14,0.39,0.29,0.59,0.44c0.1,0.08,0.2,0.15,0.3,0.23s0.19,0.15,0.28,0.23c0.18,0.15,0.36,0.29,0.5,0.41
		c0.04,0.03,0.07,0.06,0.11,0.09c0.03,0.03,0.06,0.05,0.09,0.08c0.06,0.05,0.11,0.09,0.15,0.13
		C136.72,114.64,136.77,114.68,136.77,114.68"/>
	<path class="st8" d="M136.72,117l-5.69,3.23l-5.69,3.22c0,0-0.11-0.03-0.27-0.09c-0.16-0.05-0.38-0.12-0.6-0.18
		c-0.11-0.03-0.22-0.06-0.32-0.09s-0.2-0.05-0.28-0.07c-0.16-0.04-0.27-0.07-0.27-0.07l6.58-4.14l6.58-4.14c0,0,0,0.15,0,0.37
		c0,0.11,0,0.24,0,0.37c0,0.14,0,0.28-0.01,0.43c-0.01,0.29-0.01,0.58-0.02,0.8C136.73,116.86,136.72,117,136.72,117"/>
	<path class="st7" d="M133.32,109.93l-5.97,4.97l-5.97,4.98c0,0-0.04-0.17-0.11-0.42c-0.02-0.06-0.03-0.13-0.05-0.21
		c-0.01-0.04-0.02-0.07-0.03-0.11s-0.02-0.08-0.03-0.12c-0.05-0.16-0.09-0.33-0.14-0.5c-0.01-0.04-0.03-0.09-0.04-0.13
		s-0.03-0.09-0.04-0.13c-0.03-0.08-0.05-0.17-0.08-0.25c-0.05-0.16-0.1-0.31-0.14-0.44c-0.09-0.26-0.15-0.43-0.15-0.43l9.27-9.22
		c0,0,0.22,0.11,0.55,0.28c0.17,0.09,0.35,0.19,0.56,0.3c0.1,0.06,0.21,0.12,0.32,0.17c0.05,0.03,0.11,0.06,0.16,0.09
		s0.11,0.06,0.16,0.09c0.22,0.13,0.44,0.25,0.64,0.37c0.05,0.03,0.1,0.06,0.15,0.09s0.1,0.06,0.14,0.09
		c0.09,0.06,0.18,0.11,0.26,0.16C133.1,109.79,133.32,109.93,133.32,109.93"/>
	<path class="st8" d="M133.58,112.24l-5.21,3.96l-5.21,3.95c0,0-0.11-0.02-0.28-0.05c-0.08-0.01-0.18-0.03-0.29-0.05
		c-0.1-0.02-0.21-0.04-0.33-0.05c-0.22-0.03-0.45-0.06-0.61-0.08c-0.08-0.01-0.15-0.02-0.2-0.03c-0.05-0.01-0.08-0.01-0.08-0.01
		l5.97-4.98l5.97-4.97c0,0,0,0.04,0.01,0.1s0.02,0.15,0.03,0.26c0.03,0.22,0.07,0.51,0.1,0.8c0.02,0.14,0.03,0.29,0.04,0.42
		c0.01,0.14,0.03,0.26,0.04,0.37C133.57,112.09,133.58,112.24,133.58,112.24"/>
	<path class="st7" d="M129.26,105.68l-5.26,5.73l-5.26,5.73c0,0-0.02-0.04-0.04-0.11c-0.03-0.07-0.07-0.17-0.12-0.3
		c-0.05-0.12-0.11-0.26-0.17-0.42c-0.03-0.08-0.07-0.16-0.1-0.24c-0.03-0.08-0.07-0.16-0.11-0.24c-0.07-0.16-0.15-0.33-0.22-0.48
		s-0.14-0.29-0.2-0.41s-0.11-0.22-0.15-0.29s-0.06-0.11-0.06-0.11l3.98-5.19l3.98-5.19c0,0,0.06,0.02,0.16,0.06
		c0.1,0.04,0.25,0.09,0.42,0.15c0.17,0.07,0.38,0.14,0.6,0.23c0.22,0.09,0.45,0.18,0.68,0.27c0.12,0.05,0.23,0.09,0.35,0.14
		c0.11,0.05,0.23,0.1,0.33,0.14c0.22,0.09,0.42,0.18,0.6,0.26c0.17,0.08,0.32,0.15,0.42,0.19
		C129.21,105.65,129.26,105.68,129.26,105.68"/>
	<path class="st8" d="M129.83,107.93l-9.27,9.22c0,0-0.11,0-0.28-0.01s-0.4-0.01-0.63-0.01c-0.23,0-0.45-0.01-0.62,0
		c-0.17,0-0.28,0-0.28,0l5.26-5.73l5.26-5.73c0,0,0.04,0.14,0.1,0.35c0.06,0.21,0.13,0.49,0.2,0.78c0.07,0.28,0.14,0.56,0.19,0.77
		C129.8,107.79,129.83,107.93,129.83,107.93"/>
	<path class="st7" d="M124.68,102l-4.45,6.37l-4.45,6.37c0,0-0.01-0.01-0.02-0.03c-0.01-0.02-0.02-0.05-0.04-0.08
		c-0.04-0.07-0.09-0.16-0.16-0.27c-0.07-0.11-0.14-0.25-0.23-0.39c-0.09-0.14-0.18-0.29-0.27-0.44c-0.02-0.04-0.05-0.08-0.07-0.11
		c-0.01-0.02-0.02-0.04-0.03-0.06l-0.02-0.03l-0.02-0.03c-0.06-0.08-0.13-0.17-0.19-0.25c-0.12-0.16-0.23-0.31-0.33-0.44
		c-0.19-0.26-0.32-0.43-0.32-0.43l3.46-5.55l3.46-5.55c0,0,0.21,0.04,0.53,0.1c0.16,0.03,0.34,0.07,0.54,0.1
		c0.1,0.02,0.2,0.04,0.3,0.06c0.01,0,0.03,0.01,0.04,0.01l0.05,0.01c0.03,0.01,0.06,0.02,0.09,0.02c0.06,0.02,0.12,0.03,0.18,0.05
		c0.24,0.06,0.49,0.13,0.72,0.19c0.23,0.06,0.44,0.13,0.62,0.18s0.34,0.1,0.44,0.13c0.05,0.02,0.09,0.03,0.12,0.04
		C124.67,102,124.68,102,124.68,102"/>
	<path class="st8" d="M125.55,104.16l-3.98,5.19l-3.98,5.19c0,0-0.46,0.04-0.9,0.09c-0.45,0.06-0.89,0.12-0.89,0.12l4.45-6.37
		l4.45-6.37c0,0,0.23,0.54,0.45,1.08C125.35,103.62,125.55,104.16,125.55,104.16"/>
	<path class="st7" d="M120.27,99.17l-4.11,6.6l-4.11,6.6l-2.06-2.74l3.46-5.55l3.46-5.55L120.27,99.17"/>
	<path class="st8" d="M121.01,101.09l-3.46,5.55l-3.46,5.55l-2.05,0.18l4.11-6.6l4.11-6.6L121.01,101.09"/>
	<path class="st7" d="M116.16,96.62l-4.11,6.6l-4.11,6.6l-2.06-2.74l3.46-5.55l3.46-5.55L116.16,96.62"/>
	<path class="st8" d="M116.9,98.53l-3.46,5.55l-3.46,5.55l-2.05,0.18l4.11-6.6l4.11-6.6L116.9,98.53"/>
	<path class="st7" d="M112.05,94.05l-4.11,6.6l-4.11,6.6l-2.17-2.82l3.45-5.54l3.43-5.51L112.05,94.05"/>
	<path class="st8" d="M112.79,95.97l-3.46,5.55l-3.46,5.55l-2.05,0.18l4.11-6.6l4.11-6.6L112.79,95.97"/>
	<path class="st7" d="M144.35,141.94l5.27,22.69c-2.48,0.22-8.18,0.33-13.89-2.3l-4.05-17.45L144.35,141.94"/>
	<path class="st9" d="M117.79,114.95c0.06,0.12,0.13,0.25,0.2,0.4s0.14,0.31,0.22,0.48c0.04,0.08,0.07,0.16,0.11,0.24
		c0.03,0.08,0.07,0.16,0.1,0.24c0.06,0.15,0.12,0.29,0.17,0.42c0.05,0.12,0.09,0.23,0.12,0.3c0.03,0.07,0.04,0.11,0.04,0.11
		s0.11,0,0.28,0s0.39,0,0.62,0s0.45,0.01,0.63,0.01c0.05,0,0.09,0,0.12,0.01c-8.25,2.83-12.99,6.13-12.99,9.66
		c0,4.63,8.17,8.88,21.72,12.16c4.51,1.09,9.63,2.08,15.23,2.94l-0.01,0.03l0.57,2.43c-5.28-0.75-10.2-1.6-14.7-2.54
		c-18.25-3.83-29.57-9.15-29.57-15.03C100.65,122.41,106.97,118.33,117.79,114.95"/>
	<path class="st10" d="M200.13,195.93c-1.06,0-1.91-0.86-1.91-1.91s0.86-1.91,1.91-1.91c0.04,0,0.07,0,0.11,0v3.82
		C200.2,195.93,200.16,195.93,200.13,195.93"/>
	<path class="st10" d="M167.81,220.23c-2.08,0-4.02-0.59-5.66-1.62l-3.41-14.69c1.88-3.03,5.24-5.04,9.07-5.04
		c5.89,0,10.67,4.78,10.67,10.67C178.48,215.45,173.7,220.23,167.81,220.23"/>
	<path class="st11" d="M162.15,218.61c-3.01-1.89-5.02-5.24-5.02-9.06c0-2.07,0.59-4,1.61-5.64L162.15,218.61"/>
	<path class="st10" d="M194.75,225.53c-0.66,0-1.28-0.18-1.8-0.51v-5.91c0.53-0.32,1.14-0.51,1.8-0.51c1.91,0,3.46,1.55,3.46,3.46
		C198.21,223.98,196.66,225.53,194.75,225.53"/>
	<path class="st10" d="M182.35,195.84c-1.04-0.3-1.8-1.27-1.8-2.4c0-1.14,0.76-2.1,1.8-2.41V195.84"/>
	<path class="st10" d="M140.2,200.35c-5.04,0-9.13-4.09-9.13-9.13c0-5.04,4.09-9.13,9.13-9.13c0.04,0,0.07,0,0.11,0l4.01,17.28
		C143.08,200,141.68,200.35,140.2,200.35"/>
	<path class="st11" d="M144.32,199.37l-4.01-17.28c4.99,0.06,9.02,4.12,9.02,9.13C149.33,194.78,147.29,197.86,144.32,199.37"/>
	<path class="st10" d="M156.2,250.51c-1.06-1-1.72-2.43-1.72-4c0-0.67,0.12-1.32,0.34-1.92L156.2,250.51"/>
	<path class="st11" d="M160,252.03c-1.48,0-2.82-0.58-3.81-1.52l-1.37-5.92c0.78-2.1,2.8-3.6,5.18-3.6c3.05,0,5.52,2.47,5.52,5.52
		C165.53,249.56,163.05,252.03,160,252.03"/>
	<path class="st10" d="M178.45,281.39c-0.61,0-1.21-0.08-1.78-0.23l-2.85-12.25c1.24-1.07,2.86-1.71,4.62-1.71
		c1.44,0,2.78,0.43,3.89,1.16v11.87C181.23,280.96,179.89,281.39,178.45,281.39"/>
	<path class="st11" d="M176.68,281.16c-3.06-0.79-5.32-3.57-5.32-6.87c0-2.15,0.96-4.08,2.47-5.38L176.68,281.16"/>
	<path class="st10" d="M156.69,302.61c-1.83,0-3.31-1.48-3.31-3.31s1.48-3.31,3.31-3.31s3.31,1.48,3.31,3.31
		C160,301.13,158.52,302.61,156.69,302.61"/>
	<path class="st10" d="M163.91,319.69c-2.16,0-3.9-1.75-3.9-3.9s1.75-3.9,3.9-3.9s3.9,1.75,3.9,3.9S166.06,319.69,163.91,319.69"/>
	<path class="st10" d="M182.35,305.59l-0.9-3.9c0.24-0.36,0.55-0.67,0.9-0.93V305.59"/>
	<path class="st11" d="M182.35,306.78c-0.94-0.67-1.54-1.77-1.54-3.01c0-0.77,0.24-1.49,0.64-2.08l0.9,3.9V306.78"/>
	<path class="st11" d="M172.08,294.66c-1.1,0-1.99-0.89-1.99-1.99c0-1.1,0.89-1.99,1.99-1.99s1.99,0.89,1.99,1.99
		C174.06,293.77,173.18,294.66,172.08,294.66"/>
	<path class="st10" d="M157.78,276.58c-1.23,0-2.23-1-2.23-2.23s1-2.23,2.23-2.23s2.23,1,2.23,2.23
		C160,275.59,159.01,276.58,157.78,276.58"/>
	<path class="st11" d="M182.35,337.06c-0.62-0.83-0.99-1.86-0.99-2.98c0-1.12,0.37-2.15,0.99-2.98V337.06"/>
	<path class="st10" d="M167.81,335c-1.26,0-2.28-1.02-2.28-2.28s1.02-2.28,2.28-2.28s2.28,1.02,2.28,2.28S169.07,335,167.81,335"/>
	<path class="st10" d="M173.62,367.76c-3.96,0-7.18-3.21-7.18-7.18c0-3.96,3.21-7.18,7.18-7.18c3.97,0,7.18,3.21,7.18,7.18
		C180.8,364.55,177.59,367.76,173.62,367.76"/>
	<path class="st10" d="M170.31,389.85c-2.68,0-4.86-2.18-4.86-4.86s2.18-4.86,4.86-4.86s4.86,2.18,4.86,4.86
		S172.99,389.85,170.31,389.85"/>
	<path class="st10" d="M154.74,375.82c-1.68,0-3.04-1.36-3.04-3.04c0-1.68,1.36-3.04,3.04-3.04s3.04,1.36,3.04,3.04
		C157.78,374.46,156.42,375.82,154.74,375.82"/>
	<path class="st10" d="M151.46,354.45c-1.81,0-3.29-1.47-3.29-3.29c0-1.81,1.47-3.28,3.29-3.28c1.81,0,3.28,1.47,3.28,3.28
		C154.74,352.98,153.27,354.45,151.46,354.45"/>
	<path class="st11" d="M199.35,404.42c-1.65,0-2.98-1.33-2.98-2.98c0-1.65,1.33-2.98,2.98-2.98c0.31,0,0.6,0.05,0.88,0.13v5.7
		C199.96,404.38,199.66,404.42,199.35,404.42"/>
	<path class="st10" d="M179.81,410.39c-1.89,0-3.42-1.53-3.42-3.42s1.53-3.42,3.42-3.42c1.01,0,1.91,0.44,2.54,1.13v4.59
		C181.72,409.95,180.81,410.39,179.81,410.39"/>
	<path class="st10" d="M162.03,405.75c-2.44,0-4.42-1.98-4.42-4.42s1.98-4.42,4.42-4.42s4.42,1.98,4.42,4.42
		S164.47,405.75,162.03,405.75"/>
	<path class="st10" d="M163.22,425.22c-1.78,0-3.22-1.44-3.22-3.22s1.44-3.22,3.22-3.22s3.22,1.44,3.22,3.22
		C166.45,423.78,165,425.22,163.22,425.22"/>
	<path class="st10" d="M193.21,422c-0.09,0-0.18,0-0.27-0.01v-6.29c0.09-0.01,0.18-0.01,0.27-0.01c0.51,0,0.99,0.12,1.41,0.33
		l1.1,4.73C195.15,421.51,194.24,422,193.21,422"/>
	<path class="st11" d="M195.73,420.75l-1.1-4.73c1.03,0.52,1.74,1.59,1.74,2.82C196.37,419.56,196.13,420.22,195.73,420.75"/>
	<path class="st11" d="M192.95,395.03v-6.41c1.08,0.66,1.8,1.85,1.8,3.2S194.03,394.37,192.95,395.03"/>
	<path class="st10" d="M159.08,184.38c-1.08,0-1.95-0.87-1.95-1.95s0.87-1.95,1.95-1.95s1.95,0.87,1.95,1.95
		C161.03,183.5,160.16,184.38,159.08,184.38"/>
	<path class="st10" d="M130.17,177.27c-1.43,0-2.6-1.16-2.6-2.6c0-1.43,1.16-2.59,2.6-2.59c1.43,0,2.59,1.16,2.59,2.59
		C132.76,176.11,131.6,177.27,130.17,177.27"/>
	<path class="st10" d="M133.76,232.15c-4.21,0-7.62-3.41-7.62-7.62s3.41-7.62,7.62-7.62s7.62,3.41,7.62,7.62
		S137.97,232.15,133.76,232.15"/>
	<path class="st10" d="M268.48,192.51c-4.21,0-7.62-3.41-7.62-7.62c0-4.21,3.41-7.62,7.62-7.62c0.35,0,0.69,0.02,1.03,0.07
		l-0.81,15.17C268.63,192.51,268.56,192.51,268.48,192.51"/>
	<path class="st10" d="M266.88,226.52c-2.65,0-4.8-2.15-4.8-4.8c0-2.65,2.15-4.8,4.8-4.8c0.17,0,0.34,0.01,0.51,0.03L266.88,226.52
		L266.88,226.52"/>
	<path class="st10" d="M264.23,263.96c-1.46,0-2.65-1.19-2.65-2.65s1.19-2.65,2.65-2.65c0.33,0,0.64,0.06,0.92,0.17l-0.27,5.05
		C264.67,263.93,264.45,263.96,264.23,263.96"/>
	<path class="st10" d="M254.73,277.98c-1.92,0-3.48-1.56-3.48-3.48s1.56-3.48,3.48-3.48s3.48,1.56,3.48,3.48
		C258.21,276.43,256.65,277.98,254.73,277.98"/>
	<path class="st10" d="M255.06,257.88c-1.01,0-1.82-0.81-1.82-1.82c0-1.01,0.82-1.82,1.82-1.82s1.82,0.82,1.82,1.82
		C256.89,257.07,256.07,257.88,255.06,257.88"/>
	<path class="st10" d="M247.28,337.06c-2.2,0-3.98-1.78-3.98-3.98s1.78-3.98,3.98-3.98s3.98,1.78,3.98,3.98
		C251.25,335.28,249.47,337.06,247.28,337.06"/>
	<path class="st10" d="M251.01,367.38c-1.24,0-2.24-1-2.24-2.24s1-2.24,2.24-2.24s2.24,1,2.24,2.24
		C253.24,366.37,252.24,367.38,251.01,367.38"/>
	<path class="st10" d="M251.47,398.46c-3.72,0-6.74-3.02-6.74-6.74s3.02-6.74,6.74-6.74c3.32,0,6.07,2.39,6.63,5.54l-0.17,3.09
		C257.12,396.42,254.54,398.46,251.47,398.46"/>
	<path class="st10" d="M247.58,415.02c-1.89,0-3.42-1.53-3.42-3.42s1.53-3.42,3.42-3.42s3.42,1.53,3.42,3.42
		C251.01,413.49,249.47,415.02,247.58,415.02"/>
	<path class="st12" d="M182.35,461.91c-2.58-0.12-5.11-0.26-7.58-0.43c-20.47-1.41-37.06-4.54-45.65-8.55
		c6.16,0.96,13.03,1.74,20.43,2.3c9.03,1.83,20.28,3.17,32.8,3.83L182.35,461.91"/>
	<path class="st13" d="M182.35,459.05c-12.52-0.65-23.76-2-32.8-3.83c0.73,0.06,1.46,0.11,2.2,0.16c7.88,0.54,16.32,0.83,25.09,0.83
		c0.3,0,0.59,0,0.89,0c1.52,0.11,3.06,0.2,4.62,0.28L182.35,459.05"/>
	<path class="st14" d="M293.77,126.81h-1.6c0-0.75-0.22-1.49-0.63-2.22c-2-3.49-8.68-6.7-18.71-9.34l0,0l0.14-2.67
		c9.46,2.2,16.75,4.83,21.17,7.73L293.77,126.81"/>
	<path class="st12" d="M217.91,461.81v-2.79c31.46-1.71,54.72-7.78,54.72-15l14.83-288.8c0.01-0.14,0.02-0.28,0.02-0.42
		c0-4.03-5.99-7.75-16.18-10.8l0.14-2.61l0.15-2.69c10.73-2.7,17.88-6.03,19.97-9.66c0.42-0.73,0.63-1.47,0.63-2.22h1.6l-0.4,6.99
		l-17.81,312.87c0,0.11-0.01,0.23-0.02,0.34v0.04l0,0c-0.06,0.49-0.22,0.98-0.5,1.46c-2.02,3.52-9.75,6.68-21.25,9.08
		c-9.04,1.89-20.42,3.31-33.18,4.07C219.72,461.71,218.82,461.76,217.91,461.81"/>
	<path class="st13" d="M217.91,459.02v-2.55c30.26-1.7,52.57-7.56,52.57-14.53c0-3.45-5.45-6.62-14.63-9.15l2.1-39.17
		c0.18-0.6,0.27-1.24,0.27-1.89c0-0.41-0.04-0.8-0.1-1.19l6.78-126.66c1.15-0.29,2-1.33,2-2.57c0-1.14-0.72-2.11-1.73-2.48
		l1.73-32.3c2.65,0,4.8-2.15,4.8-4.8c0-2.48-1.88-4.52-4.29-4.78l1.31-24.43c4.11-0.12,7.4-3.48,7.4-7.62
		c0-3.86-2.87-7.05-6.59-7.55l0.61-11.4c10.54-3.01,16.92-6.71,17.33-10.73l-14.83,288.8C272.62,451.24,249.37,457.31,217.91,459.02
		"/>
	<path class="st15" d="M217.91,456.47v-2.61c5.54-0.69,10.62-1.53,15.14-2.47c11.83-2.47,19.79-5.73,21.86-9.34
		c0.28-0.49,0.46-1,0.51-1.5l0,0v-0.04c0.01-0.12,0.02-0.23,0.02-0.35l0.39-7.36c9.17,2.53,14.63,5.71,14.63,9.15
		C270.47,448.91,248.16,454.77,217.91,456.47"/>
	<path class="st12" d="M271.58,138.69l1.25-23.45c10.03,2.65,16.71,5.85,18.71,9.34c0.42,0.73,0.63,1.47,0.63,2.22
		s-0.22,1.49-0.63,2.22C289.46,132.67,282.31,135.99,271.58,138.69"/>
	<path class="st16" d="M270.12,165.95l0.28-5.17c4.22-1.8,6.59-3.83,6.59-5.98c0-2.04-2.14-3.97-5.96-5.7l0.27-5.1
		c10.19,3.05,16.18,6.78,16.18,10.8c0,0.14-0.01,0.28-0.02,0.42C287.04,159.24,280.66,162.94,270.12,165.95"/>
	<path class="st17" d="M270.4,160.78l0.62-11.68c3.82,1.73,5.96,3.66,5.96,5.7C276.98,156.95,274.61,158.98,270.4,160.78"/>
	<path class="st18" d="M268.7,192.51l0.81-15.17c3.72,0.5,6.59,3.69,6.59,7.55C276.1,189.03,272.81,192.39,268.7,192.51"/>
	<path class="st18" d="M266.88,226.52l0.51-9.58c2.41,0.26,4.29,2.3,4.29,4.78C271.68,224.37,269.53,226.52,266.88,226.52"/>
	<path class="st18" d="M264.88,263.88l0.27-5.05c1.01,0.37,1.73,1.35,1.73,2.48C266.88,262.55,266.03,263.59,264.88,263.88"/>
	<path class="st18" d="M257.94,393.62l0.17-3.09c0.07,0.39,0.1,0.79,0.1,1.19C258.21,392.38,258.12,393.02,257.94,393.62"/>
	<path class="st10" d="M217.91,427.41c-2.4-0.13-4.85-0.24-7.35-0.32l-10.32-44.46v-186.7c1.01-0.06,1.8-0.89,1.8-1.91
		s-0.8-1.85-1.8-1.91v-18.65c6.05-0.01,11.96-0.14,17.67-0.4L217.91,427.41"/>
	<path class="st19" d="M200.24,455.5v-15.32l1.31,5.65l12.62-3.18l-3.61-15.54c2.5,0.08,4.94,0.19,7.35,0.32v26.44
		C212.42,454.54,206.5,455.1,200.24,455.5"/>
	<path class="st11" d="M201.55,445.82l-1.31-5.65v-35.88c1.21-0.38,2.1-1.51,2.1-2.85s-0.88-2.47-2.1-2.85v-15.96l10.32,44.46
		l3.61,15.54L201.55,445.82"/>
	<path class="st20" d="M200.24,173.46v-5.56c4.41,0.21,9,0.32,13.71,0.32c1.33,0,2.65-0.01,3.96-0.03v4.87
		C212.2,173.31,206.29,173.45,200.24,173.46"/>
	<path class="st21" d="M213.95,168.21c-4.71,0-9.29-0.11-13.71-0.32v-22.21c6.05,0,11.95-0.13,17.67-0.36v22.86
		C216.6,168.21,215.28,168.21,213.95,168.21"/>
	<path class="st22" d="M200.24,195.93v-3.82c1.01,0.06,1.8,0.89,1.8,1.91C202.04,195.04,201.24,195.87,200.24,195.93"/>
	<path class="st23" d="M200.24,404.29v-5.7c1.21,0.38,2.1,1.51,2.1,2.85C202.33,402.78,201.45,403.91,200.24,404.29"/>
	<path class="st24" d="M200.24,456.97v-1.47c6.26-0.4,12.19-0.95,17.67-1.64v2.61C212.26,456.79,206.34,456.96,200.24,456.97"/>
	<path class="st10" d="M182.35,427.38v-18.12c0.55-0.61,0.88-1.41,0.88-2.3c0-0.88-0.34-1.69-0.88-2.3v-41.54l1.51,6.5
		c-0.4,0.63-0.63,1.37-0.63,2.16c0,1.45,0.77,2.73,1.93,3.44l3.23,13.92c-0.69,0.68-1.13,1.63-1.13,2.68c0,1.66,1.08,3.07,2.58,3.56
		l3.11,13.4v6.91c-1.62,0.14-2.89,1.49-2.89,3.15s1.27,3.01,2.89,3.15v5C189.33,427.06,185.79,427.19,182.35,427.38 M192.95,351.24
		l-3.16-13.6c0.93-0.9,1.5-2.16,1.5-3.56c0-2.21-1.44-4.08-3.43-4.72l-5.19-22.37c0.54,0.31,1.16,0.48,1.83,0.48
		c2.04,0,3.7-1.66,3.7-3.7s-1.66-3.7-3.7-3.7c-0.8,0-1.55,0.26-2.15,0.69v-20.53c1.93-1.27,3.2-3.45,3.2-5.93
		c0-2.48-1.27-4.66-3.2-5.93v-72.52c0.22,0.06,0.46,0.1,0.7,0.1c1.38,0,2.5-1.12,2.5-2.5s-1.12-2.5-2.5-2.5
		c-0.24,0-0.48,0.03-0.7,0.1v-17.94c3.46,0.15,7,0.25,10.6,0.31v45.71c-0.99,0.61-1.66,1.7-1.66,2.95s0.66,2.35,1.66,2.95
		L192.95,351.24"/>
	<path class="st19" d="M182.35,456.18v-28.81c3.44-0.18,6.98-0.32,10.6-0.39v28.9C189.49,456.03,185.95,456.13,182.35,456.18"/>
	<path class="st11" d="M192.95,408.78l-3.11-13.4c0.37,0.12,0.76,0.19,1.17,0.19c0.71,0,1.38-0.2,1.94-0.54V408.78 M188.39,389.15
		l-3.23-13.92c0.61,0.37,1.33,0.59,2.1,0.59c2.23,0,4.03-1.81,4.03-4.03c0-2.23-1.8-4.03-4.03-4.03c-1.43,0-2.69,0.75-3.4,1.87
		l-1.51-6.5v-26.07c0.91,1.21,2.35,1.99,3.98,1.99c1.35,0,2.57-0.54,3.47-1.41l3.16,13.6v37.38c-0.57-0.34-1.23-0.54-1.94-0.54
		C189.99,388.08,189.06,388.49,188.39,389.15 M182.35,331.1v-24.32c0.11,0.07,0.21,0.14,0.33,0.21l5.19,22.37
		c-0.49-0.16-1-0.24-1.54-0.24C184.7,329.11,183.25,329.89,182.35,331.1"/>
	<path class="st20" d="M192.95,173.4c-3.6-0.06-7.14-0.16-10.6-0.31v-6.68c3.35,0.41,6.9,0.76,10.6,1.04V173.4"/>
	<path class="st21" d="M192.95,167.45c-3.7-0.28-7.25-0.63-10.6-1.04v-21.06c3.47,0.14,7.01,0.23,10.6,0.29V167.45"/>
	<path class="st22" d="M192.95,225.02c-0.99-0.61-1.66-1.7-1.66-2.95s0.66-2.34,1.66-2.95V225.02"/>
	<path class="st22" d="M183.05,195.93c-0.24,0-0.48-0.03-0.7-0.1v-4.81c0.22-0.06,0.46-0.1,0.7-0.1c1.38,0,2.5,1.12,2.5,2.5
		C185.55,194.81,184.43,195.93,183.05,195.93"/>
	<path class="st22" d="M182.35,280.22v-11.87c1.93,1.27,3.2,3.45,3.2,5.93C185.55,276.77,184.28,278.96,182.35,280.22"/>
	<path class="st22" d="M184.5,307.47c-0.66,0-1.29-0.18-1.83-0.48l-0.33-1.4v-4.83c0.61-0.44,1.35-0.69,2.15-0.69
		c2.04,0,3.7,1.66,3.7,3.7C188.2,305.81,186.54,307.47,184.5,307.47"/>
	<path class="st23" d="M182.67,306.98c-0.11-0.06-0.22-0.13-0.33-0.21v-1.19L182.67,306.98"/>
	<path class="st22" d="M189.79,337.64l-1.92-8.28c1.99,0.65,3.43,2.52,3.43,4.72C191.29,335.48,190.72,336.74,189.79,337.64"/>
	<path class="st23" d="M186.32,339.05c-1.63,0-3.07-0.78-3.98-1.99v-5.96c0.91-1.21,2.35-1.99,3.98-1.99c0.54,0,1.06,0.09,1.54,0.24
		l1.92,8.28C188.89,338.51,187.67,339.05,186.32,339.05"/>
	<path class="st22" d="M185.16,375.23c-1.15-0.71-1.93-1.98-1.93-3.44c0-0.79,0.23-1.53,0.63-2.16L185.16,375.23"/>
	<path class="st23" d="M187.26,375.82c-0.77,0-1.49-0.22-2.1-0.59l-1.3-5.6c0.71-1.12,1.97-1.87,3.4-1.87c2.23,0,4.03,1.8,4.03,4.03
		C191.29,374.02,189.49,375.82,187.26,375.82"/>
	<path class="st22" d="M182.35,409.26v-4.59c0.55,0.61,0.88,1.41,0.88,2.3C183.23,407.85,182.9,408.65,182.35,409.26"/>
	<path class="st22" d="M192.95,421.99c-1.62-0.14-2.89-1.49-2.89-3.15s1.27-3.01,2.89-3.15V421.99"/>
	<path class="st22" d="M189.84,395.38c-1.5-0.49-2.58-1.9-2.58-3.56c0-1.05,0.43-2,1.13-2.68L189.84,395.38"/>
	<path class="st23" d="M191.01,395.57c-0.41,0-0.8-0.06-1.17-0.19l-1.45-6.24c0.68-0.66,1.6-1.07,2.62-1.07
		c0.71,0,1.38,0.2,1.94,0.54v6.41C192.38,395.37,191.72,395.57,191.01,395.57"/>
	<path class="st9" d="M133.47,111.13c0.02,0.13,0.03,0.26,0.04,0.38c0.01,0.13,0.03,0.26,0.04,0.37c0.02,0.21,0.03,0.36,0.03,0.36
		s0.05,0.04,0.14,0.1s0.21,0.15,0.37,0.26c0.15,0.11,0.33,0.24,0.52,0.37c0.15,0.11,0.31,0.24,0.48,0.36
		c16.67-3.34,39.51-5.41,64.71-5.41c29.71,0,56.14,2.87,73.04,7.32c12.13,3.2,19.35,7.21,19.35,11.57c0,4.5-7.72,8.64-20.6,11.89
		c-13.31,3.36-32.15,5.76-53.67,6.63c-5.72,0.23-11.62,0.36-17.67,0.36c-0.15,0-0.29,0-0.44,0c-2.3,0-4.59-0.02-6.85-0.05
		c-3.59-0.05-7.13-0.15-10.6-0.29c-14.05-0.55-26.97-1.75-37.98-3.44l-0.01,0.03l0.56,2.43c11.1,1.57,23.79,2.68,37.43,3.2
		c3.48,0.13,7.01,0.22,10.6,0.28c2.26,0.03,4.55,0.05,6.85,0.05c0.15,0,0.29,0,0.44,0c6.03-0.01,11.94-0.12,17.67-0.35
		c20.87-0.82,39.44-3.03,53.53-6.16c9.67-2.15,17.22-4.73,21.94-7.6c3.6-2.19,5.56-4.54,5.56-6.99c0-2.27-1.68-4.45-4.8-6.5
		c-4.42-2.9-11.71-5.53-21.17-7.73c-18.13-4.22-44.2-6.86-73.18-6.86C174.29,105.71,151.04,107.76,133.47,111.13"/>
</g>
</svg>
